<svg width="142" height="150" viewBox="0 0 142 150" fill="none" xmlns="http://www.w3.org/2000/svg">
<mask id="mask0" mask-type="alpha" maskUnits="userSpaceOnUse" x="6" y="21" width="130" height="129">
<path d="M70.9999 149.758C106.447 149.758 135.182 121.022 135.182 85.5757C135.182 50.1291 106.447 21.3939 70.9999 21.3939C35.5533 21.3939 6.81812 50.1291 6.81812 85.5757C6.81812 121.022 35.5533 149.758 70.9999 149.758Z" fill="white"/>
</mask>
<g mask="url(#mask0)">
<path d="M70.9999 149.758C106.447 149.758 135.182 121.022 135.182 85.5757C135.182 50.1291 106.447 21.3939 70.9999 21.3939C35.5533 21.3939 6.81812 50.1291 6.81812 85.5757C6.81812 121.022 35.5533 149.758 70.9999 149.758Z" fill="#E6E6E6"/>
<path d="M135.182 21.3939H6.81812V149.758H135.182V21.3939Z" fill="#65C9FF"/>
</g>
<mask id="mask1" mask-type="alpha" maskUnits="userSpaceOnUse" x="0" y="0" width="142" height="150">
<path d="M6.81808 85.5758C6.81808 121.022 35.5533 149.758 70.9999 149.758C106.447 149.758 135.182 121.022 135.182 85.5758H141.6V0H0.399902V85.5758H6.81808Z" fill="white"/>
</mask>
<g mask="url(#mask1)">
<mask id="mask2" mask-type="alpha" maskUnits="userSpaceOnUse" x="17" y="19" width="108" height="131">
<path d="M83.8363 96.5996V106.435H85.9757C107.244 106.435 124.485 123.676 124.485 144.944V149.758H17.5151V144.944C17.5151 123.676 34.7562 106.435 56.0242 106.435H58.1636V96.5996C48.9442 92.2199 42.3172 83.2691 41.2117 72.676C38.0963 72.2355 35.7 69.5583 35.7 66.3213V58.8334C35.7 55.6532 38.013 53.0132 41.0485 52.504V49.2062C41.0485 32.6644 54.4582 19.2546 71 19.2546C87.5417 19.2546 100.951 32.6644 100.951 49.2062V52.504C103.987 53.0132 106.3 55.6532 106.3 58.8334V66.3213C106.3 69.5583 103.904 72.2355 100.788 72.676C99.6827 83.2691 93.0557 92.2199 83.8363 96.5996Z" fill="white"/>
</mask>
<g mask="url(#mask2)">
<path d="M83.8363 96.5996V106.435H85.9757C107.244 106.435 124.485 123.676 124.485 144.944V149.758H17.5151V144.944C17.5151 123.676 34.7562 106.435 56.0242 106.435H58.1636V96.5996C48.9442 92.2199 42.3172 83.2691 41.2117 72.676C38.0963 72.2355 35.7 69.5583 35.7 66.3213V58.8334C35.7 55.6532 38.013 53.0132 41.0485 52.504V49.2062C41.0485 32.6644 54.4582 19.2546 71 19.2546C87.5417 19.2546 100.951 32.6644 100.951 49.2062V52.504C103.987 53.0132 106.3 55.6532 106.3 58.8334V66.3213C106.3 69.5583 103.904 72.2355 100.788 72.676C99.6827 83.2691 93.0557 92.2199 83.8363 96.5996Z" fill="#D0C6AC"/>
<path d="M141.6 19.2546H0.399902V149.758H141.6V19.2546Z" fill="#EDB98A"/>
<path fill-rule="evenodd" clip-rule="evenodd" d="M100.951 61.5076V73.8091C100.951 90.3508 87.5416 103.761 70.9999 103.761C54.4581 103.761 41.0483 90.3508 41.0483 73.8091V61.5076V69.5303C41.0483 86.0721 54.4581 99.4818 70.9999 99.4818C87.5416 99.4818 100.951 86.0721 100.951 69.5303V61.5076Z" fill="black" fill-opacity="0.1"/>
</g>
<mask id="mask3" mask-type="alpha" maskUnits="userSpaceOnUse" x="17" y="97" width="108" height="53">
<path fill-rule="evenodd" clip-rule="evenodd" d="M58.1636 97.9152C48.5798 98.9876 41.1981 101.916 41.0507 109.454C27.2207 115.296 17.5151 128.987 17.5151 144.944V149.758H124.485V144.944C124.485 128.987 114.779 115.296 100.949 109.454C100.802 101.916 93.4201 98.9876 83.8363 97.9152V108.039C83.8363 115.129 78.0893 120.876 71 120.876C63.9107 120.876 58.1636 115.129 58.1636 108.039V97.9152Z" fill="white"/>
</mask>
<g mask="url(#mask3)">
<path fill-rule="evenodd" clip-rule="evenodd" d="M58.1636 97.9152C48.5798 98.9876 41.1981 101.916 41.0507 109.454C27.2207 115.296 17.5151 128.987 17.5151 144.944V149.758H124.485V144.944C124.485 128.987 114.779 115.296 100.949 109.454C100.802 101.916 93.4201 98.9876 83.8363 97.9152V108.039C83.8363 115.129 78.0893 120.876 71 120.876C63.9107 120.876 58.1636 115.129 58.1636 108.039V97.9152Z" fill="#B7C1DB"/>
<path d="M141.6 90.9241H0.399902V149.757H141.6V90.9241Z" fill="#262E33"/>
<path fill-rule="evenodd" clip-rule="evenodd" d="M54.9544 123.945V149.757H51.2104V122.026C52.3891 122.726 53.6423 123.368 54.9544 123.945ZM90.7892 122.026V143.607C90.7892 144.64 89.9511 145.479 88.9173 145.479C87.8834 145.479 87.0453 144.64 87.0453 143.607V123.945C88.3574 123.368 89.6106 122.726 90.7892 122.026Z" fill="#F4F4F4"/>
<path fill-rule="evenodd" clip-rule="evenodd" d="M49.0499 97.7297C41 99.2524 35.4326 102.286 35.4326 108.204C35.4326 118.747 53.1028 127.294 71 127.294C88.8973 127.294 106.567 118.747 106.567 108.204C106.567 102.286 101 99.2524 92.9502 97.7297C97.8093 99.5215 100.952 102.534 100.952 107.546C100.952 118.452 86.0714 127.294 71 127.294C55.9287 127.294 41.0485 118.452 41.0485 107.546C41.0485 102.534 44.1908 99.5215 49.0499 97.7297Z" fill="black" fill-opacity="0.16"/>
</g>
<mask id="mask4" mask-type="alpha" maskUnits="userSpaceOnUse" x="60" y="78" width="22" height="11">
<path fill-rule="evenodd" clip-rule="evenodd" d="M60.9009 79.7609C61.4667 84.8375 65.7724 88.7848 71 88.7848C76.2437 88.7848 80.5599 84.8131 81.1042 79.7138C81.148 79.3034 80.6897 78.6227 80.1153 78.6227C72.1492 78.6227 66.0462 78.6227 61.954 78.6227C61.3762 78.6227 60.8443 79.253 60.9009 79.7609Z" fill="white"/>
</mask>
<g mask="url(#mask4)">
<path fill-rule="evenodd" clip-rule="evenodd" d="M60.9009 79.7609C61.4667 84.8375 65.7724 88.7848 71 88.7848C76.2437 88.7848 80.5599 84.8131 81.1042 79.7138C81.148 79.3034 80.6897 78.6227 80.1153 78.6227C72.1492 78.6227 66.0462 78.6227 61.954 78.6227C61.3762 78.6227 60.8443 79.253 60.9009 79.7609Z" fill="black" fill-opacity="0.7"/>
<path d="M76.8834 72.7395H65.6515C64.1746 72.7395 62.9773 73.9368 62.9773 75.4137V78.6228C62.9773 80.0998 64.1746 81.2971 65.6515 81.2971H76.8834C78.3603 81.2971 79.5576 80.0998 79.5576 78.6228V75.4137C79.5576 73.9368 78.3603 72.7395 76.8834 72.7395Z" fill="white"/>
<path d="M68.3257 96.2728C71.575 96.2728 74.2091 93.6387 74.2091 90.3894C74.2091 87.1402 71.575 84.5061 68.3257 84.5061C65.0764 84.5061 62.4424 87.1402 62.4424 90.3894C62.4424 93.6387 65.0764 96.2728 68.3257 96.2728Z" fill="#FF4F6D"/>
<path d="M73.6741 96.2729C76.9234 96.2729 79.5574 93.6388 79.5574 90.3896C79.5574 87.1403 76.9234 84.5062 73.6741 84.5062C70.4248 84.5062 67.7908 87.1403 67.7908 90.3896C67.7908 93.6388 70.4248 96.2729 73.6741 96.2729Z" fill="#FF4F6D"/>
</g>
<path fill-rule="evenodd" clip-rule="evenodd" d="M64.5818 69.5303C64.5818 71.8934 67.4553 73.8091 71 73.8091C74.5446 73.8091 77.4182 71.8934 77.4182 69.5303" fill="black" fill-opacity="0.16"/>
<mask id="mask5" mask-type="alpha" maskUnits="userSpaceOnUse" x="49" y="55" width="16" height="9">
<path fill-rule="evenodd" clip-rule="evenodd" d="M57.0938 62.6031C62.2337 62.6031 64.5817 64.9839 64.5817 61.2733C64.5817 57.5627 61.2293 55.0895 57.0938 55.0895C52.9584 55.0895 49.606 57.5627 49.606 61.2733C49.606 64.9839 51.954 62.6031 57.0938 62.6031Z" fill="white"/>
</mask>
<g mask="url(#mask5)">
<path fill-rule="evenodd" clip-rule="evenodd" d="M57.0938 62.6031C62.2337 62.6031 64.5817 64.9839 64.5817 61.2733C64.5817 57.5627 61.2293 55.0895 57.0938 55.0895C52.9584 55.0895 49.606 57.5627 49.606 61.2733C49.606 64.9839 51.954 62.6031 57.0938 62.6031Z" fill="white"/>
<path d="M57.0939 63.6469C58.8662 63.6469 60.3029 62.2102 60.3029 60.4379C60.3029 58.6655 58.8662 57.2288 57.0939 57.2288C55.3215 57.2288 53.8848 58.6655 53.8848 60.4379C53.8848 62.2102 55.3215 63.6469 57.0939 63.6469Z" fill="black" fill-opacity="0.7"/>
</g>
<mask id="mask6" mask-type="alpha" maskUnits="userSpaceOnUse" x="77" y="55" width="16" height="9">
<path fill-rule="evenodd" clip-rule="evenodd" d="M84.9061 62.6031C90.046 62.6031 92.394 64.9839 92.394 61.2733C92.394 57.5627 89.0415 55.0895 84.9061 55.0895C80.7707 55.0895 77.4182 57.5627 77.4182 61.2733C77.4182 64.9839 79.7662 62.6031 84.9061 62.6031Z" fill="white"/>
</mask>
<g mask="url(#mask6)">
<path fill-rule="evenodd" clip-rule="evenodd" d="M84.9061 62.6031C90.046 62.6031 92.394 64.9839 92.394 61.2733C92.394 57.5627 89.0415 55.0895 84.9061 55.0895C80.7707 55.0895 77.4182 57.5627 77.4182 61.2733C77.4182 64.9839 79.7662 62.6031 84.9061 62.6031Z" fill="white"/>
<path d="M84.9061 63.6469C86.6784 63.6469 88.1152 62.2102 88.1152 60.4379C88.1152 58.6655 86.6784 57.2288 84.9061 57.2288C83.1338 57.2288 81.697 58.6655 81.697 60.4379C81.697 62.2102 83.1338 63.6469 84.9061 63.6469Z" fill="black" fill-opacity="0.7"/>
</g>
<path d="M49.4083 53.0348C51.5022 50.0885 57.2426 48.4363 62.1873 49.6506C62.761 49.7915 63.3403 49.4406 63.4812 48.8669C63.6221 48.2932 63.2712 47.7139 62.6975 47.573C56.955 46.1628 50.3078 48.0759 47.6644 51.7955C47.3222 52.2771 47.4351 52.9449 47.9167 53.2871C48.3982 53.6293 49.066 53.5164 49.4083 53.0348Z" fill="black" fill-opacity="0.6"/>
<path d="M92.5917 53.0348C90.4978 50.0885 84.7574 48.4363 79.8127 49.6506C79.239 49.7915 78.6597 49.4406 78.5188 48.8669C78.3779 48.2932 78.7288 47.7139 79.3025 47.573C85.045 46.1628 91.6922 48.0759 94.3356 51.7955C94.6778 52.2771 94.5649 52.9449 94.0833 53.2871C93.6018 53.6293 92.934 53.5164 92.5917 53.0348Z" fill="black" fill-opacity="0.6"/>
<mask id="mask7" mask-type="alpha" maskUnits="userSpaceOnUse" x="0" y="0" width="142" height="150">
<path d="M141.6 0H0.399902V149.758H141.6V0Z" fill="white"/>
</mask>
<g mask="url(#mask7)">
<mask id="mask8" mask-type="alpha" maskUnits="userSpaceOnUse" x="38" y="4" width="66" height="50">
<path fill-rule="evenodd" clip-rule="evenodd" d="M50.2757 27.8239C50.3415 27.7948 50.1783 27.7836 49.7859 27.7904C50.2628 27.7895 50.426 27.8006 50.2757 27.8239ZM45.9248 19.4158C45.9236 19.4053 45.9337 19.4966 45.9248 19.4158V19.4158ZM103.5 37.8489C103.359 36.0748 103.109 34.3115 102.688 32.5782C102.354 31.2005 101.898 29.886 101.358 28.5716C101.032 27.7775 100.271 26.6868 100.182 25.8302C100.093 24.9864 100.752 24.0516 100.892 23.0692C101.029 22.1132 101.006 21.1079 100.809 20.1605C100.364 18.0089 98.8872 16.008 96.6071 15.4471C96.098 15.3219 95.022 15.4763 94.6622 15.1798C94.2498 14.8399 93.9626 13.6818 93.5892 13.2172C92.5247 11.893 90.8643 11.0402 89.1132 11.3375C87.8237 11.5563 88.5642 11.823 87.5975 11.0641C87.06 10.6422 86.6584 9.99797 86.1363 9.54125C85.3516 8.85512 84.4513 8.26775 83.5199 7.78573C81.0827 6.52454 78.303 5.60779 75.5806 5.16094C70.6144 4.34573 65.3141 5.05647 60.5003 6.34798C58.105 6.99062 55.6935 7.80617 53.4689 8.88475C52.515 9.34719 51.9643 9.7308 50.9697 9.85191C49.4033 10.0427 48.0767 10.0331 46.5929 10.6974C42.0273 12.7416 39.9708 17.484 41.7474 22.0224C42.1048 22.9351 42.5887 23.7366 43.2558 24.4739C44.0691 25.3728 44.3633 25.1959 43.6628 26.2296C42.6151 27.7753 41.732 29.4235 41.0129 31.135C39.1254 35.6287 38.8096 40.6897 38.9325 45.482C38.9755 47.1598 39.0475 48.8581 39.312 50.5197C39.4263 51.2389 39.4583 52.5913 39.9978 53.1249C40.2715 53.3956 40.6615 53.5465 41.0505 53.4387C41.9648 53.1854 41.6504 52.5107 41.6717 51.8843C41.7786 48.7375 41.6343 45.9537 42.3827 42.8448C42.9355 40.5478 43.8568 38.4617 45.0507 36.4078C46.5689 33.7955 48.2079 31.5013 50.2958 29.2645C50.7867 28.7384 50.894 28.5155 51.5522 28.4773C52.0507 28.4486 52.7798 28.7899 53.2644 28.9081C54.333 29.1685 55.4035 29.426 56.4914 29.6013C58.4917 29.9237 60.4724 29.9454 62.4907 29.8822C66.4627 29.7579 70.4518 29.4793 74.3028 28.4791C76.8604 27.8149 79.1279 26.6227 81.5777 25.7488C81.6215 25.7332 82.2354 25.2957 82.343 25.3135C82.4933 25.3383 83.4004 26.29 83.5535 26.4099C84.7439 27.3435 86.0496 27.7354 87.3352 28.4583C88.9201 29.3495 87.3852 28.0741 88.2594 29.1849C88.5142 29.5084 88.6446 30.1083 88.849 30.4747C89.4994 31.6422 90.4042 32.6683 91.4864 33.4824C92.532 34.269 94.1035 34.649 94.6367 35.6728C95.0479 36.4628 95.1864 37.5363 95.5183 38.3796C96.3887 40.5913 97.5382 42.6538 98.6877 44.737C99.6137 46.4158 100.627 47.8823 100.73 49.8007C100.765 50.4684 100.13 54.474 101.678 53.2557C101.907 53.0752 102.402 51.0329 102.503 50.6864C102.916 49.2783 103.063 47.8083 103.249 46.3615C103.621 43.4843 103.743 40.7467 103.5 37.8489Z" fill="white"/>
</mask>
<g mask="url(#mask8)">
<path fill-rule="evenodd" clip-rule="evenodd" d="M50.2757 27.8239C50.3415 27.7948 50.1783 27.7836 49.7859 27.7904C50.2628 27.7895 50.426 27.8006 50.2757 27.8239ZM45.9248 19.4158C45.9236 19.4053 45.9337 19.4966 45.9248 19.4158V19.4158ZM103.5 37.8489C103.359 36.0748 103.109 34.3115 102.688 32.5782C102.354 31.2005 101.898 29.886 101.358 28.5716C101.032 27.7775 100.271 26.6868 100.182 25.8302C100.093 24.9864 100.752 24.0516 100.892 23.0692C101.029 22.1132 101.006 21.1079 100.809 20.1605C100.364 18.0089 98.8872 16.008 96.6071 15.4471C96.098 15.3219 95.022 15.4763 94.6622 15.1798C94.2498 14.8399 93.9626 13.6818 93.5892 13.2172C92.5247 11.893 90.8643 11.0402 89.1132 11.3375C87.8237 11.5563 88.5642 11.823 87.5975 11.0641C87.06 10.6422 86.6584 9.99797 86.1363 9.54125C85.3516 8.85512 84.4513 8.26775 83.5199 7.78573C81.0827 6.52454 78.303 5.60779 75.5806 5.16094C70.6144 4.34573 65.3141 5.05647 60.5003 6.34798C58.105 6.99062 55.6935 7.80617 53.4689 8.88475C52.515 9.34719 51.9643 9.7308 50.9697 9.85191C49.4033 10.0427 48.0767 10.0331 46.5929 10.6974C42.0273 12.7416 39.9708 17.484 41.7474 22.0224C42.1048 22.9351 42.5887 23.7366 43.2558 24.4739C44.0691 25.3728 44.3633 25.1959 43.6628 26.2296C42.6151 27.7753 41.732 29.4235 41.0129 31.135C39.1254 35.6287 38.8096 40.6897 38.9325 45.482C38.9755 47.1598 39.0475 48.8581 39.312 50.5197C39.4263 51.2389 39.4583 52.5913 39.9978 53.1249C40.2715 53.3956 40.6615 53.5465 41.0505 53.4387C41.9648 53.1854 41.6504 52.5107 41.6717 51.8843C41.7786 48.7375 41.6343 45.9537 42.3827 42.8448C42.9355 40.5478 43.8568 38.4617 45.0507 36.4078C46.5689 33.7955 48.2079 31.5013 50.2958 29.2645C50.7867 28.7384 50.894 28.5155 51.5522 28.4773C52.0507 28.4486 52.7798 28.7899 53.2644 28.9081C54.333 29.1685 55.4035 29.426 56.4914 29.6013C58.4917 29.9237 60.4724 29.9454 62.4907 29.8822C66.4627 29.7579 70.4518 29.4793 74.3028 28.4791C76.8604 27.8149 79.1279 26.6227 81.5777 25.7488C81.6215 25.7332 82.2354 25.2957 82.343 25.3135C82.4933 25.3383 83.4004 26.29 83.5535 26.4099C84.7439 27.3435 86.0496 27.7354 87.3352 28.4583C88.9201 29.3495 87.3852 28.0741 88.2594 29.1849C88.5142 29.5084 88.6446 30.1083 88.849 30.4747C89.4994 31.6422 90.4042 32.6683 91.4864 33.4824C92.532 34.269 94.1035 34.649 94.6367 35.6728C95.0479 36.4628 95.1864 37.5363 95.5183 38.3796C96.3887 40.5913 97.5382 42.6538 98.6877 44.737C99.6137 46.4158 100.627 47.8823 100.73 49.8007C100.765 50.4684 100.13 54.474 101.678 53.2557C101.907 53.0752 102.402 51.0329 102.503 50.6864C102.916 49.2783 103.063 47.8083 103.249 46.3615C103.621 43.4843 103.743 40.7467 103.5 37.8489Z" fill="#28354B"/>
<path d="M141.065 0.00012207H-0.134766V149.758H141.065V0.00012207Z" fill="#2C1B18"/>
<g filter="url(#filter0_d)">
<path fill-rule="evenodd" clip-rule="evenodd" d="M76.0623 54.2306C78.1565 49.9863 82.5275 47.0668 87.5804 47.0668C92.3511 47.0668 96.514 49.6693 98.7266 53.5321C98.8391 53.5013 98.9575 53.485 99.0797 53.485H103.358C104.097 53.485 104.696 54.0836 104.696 54.8221C104.696 55.5605 104.097 56.1592 103.358 56.1592H99.8622C100.223 57.3437 100.417 58.6008 100.417 59.9031C100.417 66.9925 94.6698 72.7395 87.5804 72.7395C80.4911 72.7395 74.7441 66.9925 74.7441 59.9031C74.7441 59.1426 74.8102 58.3976 74.937 57.6734C74.8918 55.333 73.0933 53.485 70.9266 53.485C68.928 53.485 67.2427 55.0573 66.9576 57.138C67.1532 58.0286 67.2562 58.9538 67.2562 59.9031C67.2562 66.9925 61.5092 72.7395 54.4198 72.7395C47.3305 72.7395 41.5835 66.9925 41.5835 59.9031C41.5835 58.6008 41.7774 57.3437 42.138 56.1592H38.6418C37.9033 56.1592 37.3047 55.5605 37.3047 54.8221C37.3047 54.0836 37.9033 53.485 38.6418 53.485H42.9206C43.0428 53.485 43.1612 53.5013 43.2736 53.5321C45.4863 49.6693 49.6492 47.0668 54.4198 47.0668C59.4218 47.0668 63.7556 49.9278 65.874 54.1026C66.985 52.4363 68.8337 51.3456 70.9266 51.3456C73.0725 51.3456 74.9618 52.4923 76.0623 54.2306ZM54.4198 70.6001C60.3276 70.6001 65.1168 65.8109 65.1168 59.9031C65.1168 53.9954 60.3276 49.2062 54.4198 49.2062C48.5121 49.2062 43.7229 53.9954 43.7229 59.9031C43.7229 65.8109 48.5121 70.6001 54.4198 70.6001ZM87.5804 70.6001C93.4882 70.6001 98.2774 65.8109 98.2774 59.9031C98.2774 53.9954 93.4882 49.2062 87.5804 49.2062C81.6727 49.2062 76.8835 53.9954 76.8835 59.9031C76.8835 65.8109 81.6727 70.6001 87.5804 70.6001Z" fill="black"/>
</g>
<path fill-rule="evenodd" clip-rule="evenodd" d="M76.0623 54.2306C78.1565 49.9863 82.5275 47.0668 87.5804 47.0668C92.3511 47.0668 96.514 49.6693 98.7266 53.5321C98.8391 53.5013 98.9575 53.485 99.0797 53.485H103.358C104.097 53.485 104.696 54.0836 104.696 54.8221C104.696 55.5605 104.097 56.1592 103.358 56.1592H99.8622C100.223 57.3437 100.417 58.6008 100.417 59.9031C100.417 66.9925 94.6698 72.7395 87.5804 72.7395C80.4911 72.7395 74.7441 66.9925 74.7441 59.9031C74.7441 59.1426 74.8102 58.3976 74.937 57.6734C74.8918 55.333 73.0933 53.485 70.9266 53.485C68.928 53.485 67.2427 55.0573 66.9576 57.138C67.1532 58.0286 67.2562 58.9538 67.2562 59.9031C67.2562 66.9925 61.5092 72.7395 54.4198 72.7395C47.3305 72.7395 41.5835 66.9925 41.5835 59.9031C41.5835 58.6008 41.7774 57.3437 42.138 56.1592H38.6418C37.9033 56.1592 37.3047 55.5605 37.3047 54.8221C37.3047 54.0836 37.9033 53.485 38.6418 53.485H42.9206C43.0428 53.485 43.1612 53.5013 43.2736 53.5321C45.4863 49.6693 49.6492 47.0668 54.4198 47.0668C59.4218 47.0668 63.7556 49.9278 65.874 54.1026C66.985 52.4363 68.8337 51.3456 70.9266 51.3456C73.0725 51.3456 74.9618 52.4923 76.0623 54.2306ZM54.4198 70.6001C60.3276 70.6001 65.1168 65.8109 65.1168 59.9031C65.1168 53.9954 60.3276 49.2062 54.4198 49.2062C48.5121 49.2062 43.7229 53.9954 43.7229 59.9031C43.7229 65.8109 48.5121 70.6001 54.4198 70.6001ZM87.5804 70.6001C93.4882 70.6001 98.2774 65.8109 98.2774 59.9031C98.2774 53.9954 93.4882 49.2062 87.5804 49.2062C81.6727 49.2062 76.8835 53.9954 76.8835 59.9031C76.8835 65.8109 81.6727 70.6001 87.5804 70.6001Z" fill="#252C2F"/>
</g>
</g>
</g>
<defs>
<filter id="filter0_d" x="33.3047" y="45.0668" width="75.3909" height="33.6727" filterUnits="userSpaceOnUse" color-interpolation-filters="sRGB">
<feFlood flood-opacity="0" result="BackgroundImageFix"/>
<feColorMatrix in="SourceAlpha" type="matrix" values="0 0 0 0 0 0 0 0 0 0 0 0 0 0 0 0 0 0 127 0"/>
<feOffset dy="2"/>
<feGaussianBlur stdDeviation="2"/>
<feColorMatrix type="matrix" values="0 0 0 0 0 0 0 0 0 0 0 0 0 0 0 0 0 0 0.1 0"/>
<feBlend mode="normal" in2="BackgroundImageFix" result="effect1_dropShadow"/>
<feBlend mode="normal" in="SourceGraphic" in2="effect1_dropShadow" result="shape"/>
</filter>
</defs>
</svg>
