<svg width="142" height="150" viewBox="0 0 142 150" fill="none" xmlns="http://www.w3.org/2000/svg">
<mask id="mask0" mask-type="alpha" maskUnits="userSpaceOnUse" x="6" y="21" width="130" height="129">
<path d="M71.1571 150C106.661 150 135.443 121.218 135.443 85.7142C135.443 50.2102 106.661 21.4285 71.1571 21.4285C35.653 21.4285 6.87134 50.2102 6.87134 85.7142C6.87134 121.218 35.653 150 71.1571 150Z" fill="white"/>
</mask>
<g mask="url(#mask0)">
<path d="M71.1571 150C106.661 150 135.443 121.218 135.443 85.7142C135.443 50.2102 106.661 21.4285 71.1571 21.4285C35.653 21.4285 6.87134 50.2102 6.87134 85.7142C6.87134 121.218 35.653 150 71.1571 150Z" fill="#E6E6E6"/>
<path d="M135.443 21.4285H6.87134V150H135.443V21.4285Z" fill="#65C9FF"/>
</g>
<mask id="mask1" mask-type="alpha" maskUnits="userSpaceOnUse" x="0" y="0" width="142" height="150">
<path d="M6.8712 85.7143C6.8712 121.218 35.6529 150 71.1569 150C106.661 150 135.443 121.218 135.443 85.7143H141.871V0H0.442627V85.7143H6.8712Z" fill="white"/>
</mask>
<g mask="url(#mask1)">
<mask id="mask2" mask-type="alpha" maskUnits="userSpaceOnUse" x="17" y="19" width="108" height="131">
<path d="M84.0143 96.7559V106.607H86.1571C107.46 106.607 124.729 123.876 124.729 145.179V150H17.5857V145.179C17.5857 123.876 34.8547 106.607 56.1571 106.607H58.3V96.7559C49.0657 92.3692 42.428 83.4038 41.3206 72.7936C38.2001 72.3524 35.8 69.6708 35.8 66.4286V58.9286C35.8 55.7433 38.1167 53.099 41.1571 52.5889V49.2858C41.1571 32.7172 54.5886 19.2858 71.1571 19.2858C87.7257 19.2858 101.157 32.7172 101.157 49.2858V52.5889C104.198 53.099 106.514 55.7433 106.514 58.9286V66.4286C106.514 69.6708 104.114 72.3524 100.994 72.7936C99.8863 83.4038 93.2486 92.3692 84.0143 96.7559Z" fill="white"/>
</mask>
<g mask="url(#mask2)">
<path d="M84.0143 96.7559V106.607H86.1571C107.46 106.607 124.729 123.876 124.729 145.179V150H17.5857V145.179C17.5857 123.876 34.8547 106.607 56.1571 106.607H58.3V96.7559C49.0657 92.3692 42.428 83.4038 41.3206 72.7936C38.2001 72.3524 35.8 69.6708 35.8 66.4286V58.9286C35.8 55.7433 38.1167 53.099 41.1571 52.5889V49.2858C41.1571 32.7172 54.5886 19.2858 71.1571 19.2858C87.7257 19.2858 101.157 32.7172 101.157 49.2858V52.5889C104.198 53.099 106.514 55.7433 106.514 58.9286V66.4286C106.514 69.6708 104.114 72.3524 100.994 72.7936C99.8863 83.4038 93.2486 92.3692 84.0143 96.7559Z" fill="#D0C6AC"/>
<path d="M141.871 19.2858H0.442627V150H141.871V19.2858Z" fill="#FFDBB4"/>
<path fill-rule="evenodd" clip-rule="evenodd" d="M101.157 61.6072V73.9286C101.157 90.4971 87.7255 103.929 71.157 103.929C54.5884 103.929 41.157 90.4971 41.157 73.9286V61.6072V69.6429C41.157 86.2114 54.5884 99.6429 71.157 99.6429C87.7255 99.6429 101.157 86.2114 101.157 69.6429V61.6072Z" fill="black" fill-opacity="0.1"/>
</g>
<mask id="mask3" mask-type="alpha" maskUnits="userSpaceOnUse" x="17" y="98" width="108" height="52">
<path fill-rule="evenodd" clip-rule="evenodd" d="M58.3 98.0737C48.7007 99.1479 41.307 102.081 41.1594 109.631C27.307 115.483 17.5857 129.195 17.5857 145.178V150H124.729V145.178C124.729 129.195 115.007 115.483 101.155 109.631C101.007 102.081 93.6136 99.1479 84.0143 98.0737V108.214C84.0143 115.315 78.2579 121.071 71.1571 121.071C64.0563 121.071 58.3 115.315 58.3 108.214V98.0737Z" fill="white"/>
</mask>
<g mask="url(#mask3)">
<path fill-rule="evenodd" clip-rule="evenodd" d="M58.3 98.0737C48.7007 99.1479 41.307 102.081 41.1594 109.631C27.307 115.483 17.5857 129.195 17.5857 145.178V150H124.729V145.178C124.729 129.195 115.007 115.483 101.155 109.631C101.007 102.081 93.6136 99.1479 84.0143 98.0737V108.214C84.0143 115.315 78.2579 121.071 71.1571 121.071C64.0563 121.071 58.3 115.315 58.3 108.214V98.0737Z" fill="#B7C1DB"/>
<path d="M141.871 91.0713H0.442627V150H141.871V91.0713Z" fill="#262E33"/>
<path fill-rule="evenodd" clip-rule="evenodd" d="M55.0857 124.146V150H51.3357V122.223C52.5163 122.925 53.7715 123.568 55.0857 124.146ZM90.9786 122.223V143.839C90.9786 144.875 90.1391 145.714 89.1036 145.714C88.068 145.714 87.2286 144.875 87.2286 143.839V124.146C88.5428 123.568 89.798 122.925 90.9786 122.223Z" fill="#F4F4F4"/>
<path fill-rule="evenodd" clip-rule="evenodd" d="M49.1718 97.8881C41.1089 99.4131 35.5325 102.452 35.5325 108.379C35.5325 118.939 53.2312 127.5 71.1575 127.5C89.0837 127.5 106.782 118.939 106.782 108.379C106.782 102.452 101.206 99.4131 93.1431 97.8881C98.0101 99.6828 101.157 102.7 101.157 107.72C101.157 118.644 86.2533 127.5 71.1575 127.5C56.0617 127.5 41.1575 118.644 41.1575 107.72C41.1575 102.7 44.3048 99.6828 49.1718 97.8881Z" fill="black" fill-opacity="0.16"/>
</g>
<path d="M63.6575 80.3571C63.6575 83.2348 66.9565 85.1785 71.1575 85.1785C75.3585 85.1785 78.6575 83.2348 78.6575 80.3571C78.6575 79.7653 78.1487 79.2856 77.586 79.2856C76.8935 79.2856 76.5844 79.7706 76.5146 80.3571C75.849 81.9309 74.2021 82.8837 71.1575 83.0356C68.1129 82.8837 66.4659 81.9309 65.8003 80.3571C65.7306 79.7706 65.4214 79.2856 64.7289 79.2856C64.1662 79.2856 63.6575 79.7653 63.6575 80.3571Z" fill="black" fill-opacity="0.6"/>
<path fill-rule="evenodd" clip-rule="evenodd" d="M64.7285 69.6428C64.7285 72.0098 67.6067 73.9285 71.1571 73.9285C74.7075 73.9285 77.5857 72.0098 77.5857 69.6428" fill="black" fill-opacity="0.16"/>
<mask id="mask4" mask-type="alpha" maskUnits="userSpaceOnUse" x="49" y="55" width="16" height="9">
<path fill-rule="evenodd" clip-rule="evenodd" d="M57.2288 62.7044C62.377 62.7044 64.7288 65.089 64.7288 61.3724C64.7288 57.6558 61.3709 55.1786 57.2288 55.1786C53.0866 55.1786 49.7288 57.6558 49.7288 61.3724C49.7288 65.089 52.0806 62.7044 57.2288 62.7044Z" fill="white"/>
</mask>
<g mask="url(#mask4)">
<path fill-rule="evenodd" clip-rule="evenodd" d="M57.2288 62.7044C62.377 62.7044 64.7288 65.089 64.7288 61.3724C64.7288 57.6558 61.3709 55.1786 57.2288 55.1786C53.0866 55.1786 49.7288 57.6558 49.7288 61.3724C49.7288 65.089 52.0806 62.7044 57.2288 62.7044Z" fill="white"/>
<path d="M57.2287 63.7501C59.0039 63.7501 60.443 62.311 60.443 60.5358C60.443 58.7606 59.0039 57.3215 57.2287 57.3215C55.4535 57.3215 54.0144 58.7606 54.0144 60.5358C54.0144 62.311 55.4535 63.7501 57.2287 63.7501Z" fill="black" fill-opacity="0.7"/>
</g>
<mask id="mask5" mask-type="alpha" maskUnits="userSpaceOnUse" x="77" y="55" width="16" height="9">
<path fill-rule="evenodd" clip-rule="evenodd" d="M85.0857 62.7044C90.2339 62.7044 92.5857 65.089 92.5857 61.3724C92.5857 57.6558 89.2278 55.1786 85.0857 55.1786C80.9436 55.1786 77.5857 57.6558 77.5857 61.3724C77.5857 65.089 79.9375 62.7044 85.0857 62.7044Z" fill="white"/>
</mask>
<g mask="url(#mask5)">
<path fill-rule="evenodd" clip-rule="evenodd" d="M85.0857 62.7044C90.2339 62.7044 92.5857 65.089 92.5857 61.3724C92.5857 57.6558 89.2278 55.1786 85.0857 55.1786C80.9436 55.1786 77.5857 57.6558 77.5857 61.3724C77.5857 65.089 79.9375 62.7044 85.0857 62.7044Z" fill="white"/>
<path d="M85.0861 63.7501C86.8613 63.7501 88.3004 62.311 88.3004 60.5358C88.3004 58.7606 86.8613 57.3215 85.0861 57.3215C83.3109 57.3215 81.8718 58.7606 81.8718 60.5358C81.8718 62.311 83.3109 63.7501 85.0861 63.7501Z" fill="black" fill-opacity="0.7"/>
</g>
<path d="M49.5306 53.1208C51.6278 50.1697 57.3775 48.5149 62.3303 49.7312C62.9049 49.8723 63.4852 49.5208 63.6263 48.9462C63.7674 48.3715 63.416 47.7913 62.8413 47.6501C57.0895 46.2377 50.4315 48.1539 47.7839 51.8795C47.4411 52.3618 47.5542 53.0307 48.0365 53.3735C48.5189 53.7163 49.1878 53.6032 49.5306 53.1208Z" fill="black" fill-opacity="0.6"/>
<path d="M92.7839 53.1208C90.6866 50.1697 84.9369 48.5149 79.9842 49.7312C79.4095 49.8723 78.8293 49.5208 78.6882 48.9462C78.547 48.3715 78.8985 47.7913 79.4731 47.6501C85.2249 46.2377 91.8829 48.1539 94.5306 51.8795C94.8734 52.3618 94.7602 53.0307 94.2779 53.3735C93.7956 53.7163 93.1267 53.6032 92.7839 53.1208Z" fill="black" fill-opacity="0.6"/>
<mask id="mask6" mask-type="alpha" maskUnits="userSpaceOnUse" x="0" y="0" width="142" height="150">
<path d="M141.871 0H0.442627V150H141.871V0Z" fill="white"/>
</mask>
<g mask="url(#mask6)">
<mask id="mask7" mask-type="alpha" maskUnits="userSpaceOnUse" x="37" y="5" width="68" height="49">
<path fill-rule="evenodd" clip-rule="evenodd" d="M98.3068 20.8655C101.203 18.2135 101.9 12.8366 100.256 9.34789C98.2369 5.0646 94.1398 4.52799 90.2135 6.41182C86.5129 8.18766 83.2186 8.77925 79.1659 7.91882C75.2774 7.09326 71.5885 5.63715 67.5694 5.39802C60.9666 5.00517 54.5516 7.45427 50.0514 12.3907C49.1928 13.3324 48.501 14.4092 47.8471 15.5006C47.3238 16.3738 46.734 17.3108 46.5114 18.3173C46.4055 18.7959 46.6026 19.9768 46.3643 20.3689C46.1064 20.7923 45.1343 21.1808 44.72 21.495C43.8806 22.1317 43.1534 22.8504 42.4809 23.6631C41.0526 25.389 40.2664 27.1917 39.6052 29.3265C37.4072 36.4221 37.2209 44.8614 40.0624 51.8287C40.4412 52.7578 41.615 54.6957 42.305 52.7062C42.4414 52.313 42.1258 50.9951 42.1265 50.5983C42.129 49.1412 42.9334 39.4936 46.4375 34.0892C47.5781 32.33 52.8515 25.7423 53.9286 25.6895C54.4993 26.5963 60.2929 32.3906 75.3266 31.7116C82.1097 31.4052 87.3262 28.3576 88.5788 27.0365C89.1298 30.0005 95.539 34.4379 96.5156 36.2637C99.3368 41.5381 99.9626 52.4977 101.04 52.4772C102.117 52.4566 102.89 49.6713 103.111 49.1395C104.757 45.1884 105.037 40.2294 104.861 35.9831C104.632 30.5177 102.376 24.6118 98.3068 20.8655Z" fill="white"/>
</mask>
<g mask="url(#mask7)">
<path fill-rule="evenodd" clip-rule="evenodd" d="M98.3068 20.8655C101.203 18.2135 101.9 12.8366 100.256 9.34789C98.2369 5.0646 94.1398 4.52799 90.2135 6.41182C86.5129 8.18766 83.2186 8.77925 79.1659 7.91882C75.2774 7.09326 71.5885 5.63715 67.5694 5.39802C60.9666 5.00517 54.5516 7.45427 50.0514 12.3907C49.1928 13.3324 48.501 14.4092 47.8471 15.5006C47.3238 16.3738 46.734 17.3108 46.5114 18.3173C46.4055 18.7959 46.6026 19.9768 46.3643 20.3689C46.1064 20.7923 45.1343 21.1808 44.72 21.495C43.8806 22.1317 43.1534 22.8504 42.4809 23.6631C41.0526 25.389 40.2664 27.1917 39.6052 29.3265C37.4072 36.4221 37.2209 44.8614 40.0624 51.8287C40.4412 52.7578 41.615 54.6957 42.305 52.7062C42.4414 52.313 42.1258 50.9951 42.1265 50.5983C42.129 49.1412 42.9334 39.4936 46.4375 34.0892C47.5781 32.33 52.8515 25.7423 53.9286 25.6895C54.4993 26.5963 60.2929 32.3906 75.3266 31.7116C82.1097 31.4052 87.3262 28.3576 88.5788 27.0365C89.1298 30.0005 95.539 34.4379 96.5156 36.2637C99.3368 41.5381 99.9626 52.4977 101.04 52.4772C102.117 52.4566 102.89 49.6713 103.111 49.1395C104.757 45.1884 105.037 40.2294 104.861 35.9831C104.632 30.5177 102.376 24.6118 98.3068 20.8655Z" fill="#28354B"/>
<path d="M141.336 0H-0.0927734V150H141.336V0Z" fill="#2C1B18"/>
</g>
</g>
</g>
</svg>
