<svg width="177" height="187" viewBox="0 0 177 187" fill="none" xmlns="http://www.w3.org/2000/svg">
<mask id="mask0" mask-type="alpha" maskUnits="userSpaceOnUse" x="8" y="26" width="161" height="161">
<path d="M88.6001 187C132.862 187 168.743 151.119 168.743 106.857C168.743 62.5954 132.862 26.7142 88.6001 26.7142C44.3385 26.7142 8.45728 62.5954 8.45728 106.857C8.45728 151.119 44.3385 187 88.6001 187Z" fill="white"/>
</mask>
<g mask="url(#mask0)">
<path d="M88.6001 187C132.862 187 168.743 151.119 168.743 106.857C168.743 62.5954 132.862 26.7142 88.6001 26.7142C44.3385 26.7142 8.45728 62.5954 8.45728 106.857C8.45728 151.119 44.3385 187 88.6001 187Z" fill="#E6E6E6"/>
<path d="M168.743 26.7142H8.45728V187H168.743V26.7142Z" fill="#65C9FF"/>
</g>
<mask id="mask1" mask-type="alpha" maskUnits="userSpaceOnUse" x="0" y="0" width="177" height="187">
<path d="M8.45716 106.857C8.45716 151.119 44.3383 187 88.6 187C132.862 187 168.743 151.119 168.743 106.857H176.757V0H0.442871V106.857H8.45716Z" fill="white"/>
</mask>
<g mask="url(#mask1)">
<mask id="mask2" mask-type="alpha" maskUnits="userSpaceOnUse" x="21" y="24" width="135" height="164">
<path d="M104.629 120.623V132.904H107.3C133.857 132.904 155.386 154.433 155.386 180.99V187H21.8145V180.99C21.8145 154.433 43.3432 132.904 69.9002 132.904H72.5716V120.623C61.0595 115.154 52.7845 103.977 51.404 90.7495C47.5138 90.1995 44.5216 86.8565 44.5216 82.8145V73.4645C44.5216 69.4934 47.4098 66.1969 51.2002 65.561V61.4431C51.2002 40.7876 67.9447 24.0431 88.6002 24.0431C109.256 24.0431 126 40.7876 126 61.4431V65.561C129.791 66.1969 132.679 69.4934 132.679 73.4645V82.8145C132.679 86.8565 129.687 90.1995 125.796 90.7495C124.416 103.977 116.141 115.154 104.629 120.623Z" fill="white"/>
</mask>
<g mask="url(#mask2)">
<path d="M104.629 120.623V132.904H107.3C133.857 132.904 155.386 154.433 155.386 180.99V187H21.8145V180.99C21.8145 154.433 43.3432 132.904 69.9002 132.904H72.5716V120.623C61.0595 115.154 52.7845 103.977 51.404 90.7495C47.5138 90.1995 44.5216 86.8565 44.5216 82.8145V73.4645C44.5216 69.4934 47.4098 66.1969 51.2002 65.561V61.4431C51.2002 40.7876 67.9447 24.0431 88.6002 24.0431C109.256 24.0431 126 40.7876 126 61.4431V65.561C129.791 66.1969 132.679 69.4934 132.679 73.4645V82.8145C132.679 86.8565 129.687 90.1995 125.796 90.7495C124.416 103.977 116.141 115.154 104.629 120.623Z" fill="#D0C6AC"/>
<path d="M176.757 24.0431H0.442871V187H176.757V24.0431Z" fill="#EDB98A"/>
<path fill-rule="evenodd" clip-rule="evenodd" d="M126 76.8036V92.1643C126 112.82 109.255 129.564 88.6 129.564C67.9445 129.564 51.2 112.82 51.2 92.1643V76.8036V86.8214C51.2 107.477 67.9445 124.221 88.6 124.221C109.255 124.221 126 107.477 126 86.8214V76.8036Z" fill="black" fill-opacity="0.1"/>
</g>
<mask id="mask3" mask-type="alpha" maskUnits="userSpaceOnUse" x="21" y="122" width="135" height="65">
<path fill-rule="evenodd" clip-rule="evenodd" d="M72.5716 122.265C60.6045 123.604 51.3871 127.261 51.203 136.674C33.9337 143.969 21.8145 161.064 21.8145 180.989V187H155.386V180.989C155.386 161.064 143.267 143.969 125.997 136.674C125.813 127.261 116.596 123.604 104.629 122.265V134.907C104.629 143.76 97.4525 150.936 88.6002 150.936C79.7478 150.936 72.5716 143.76 72.5716 134.907V122.265Z" fill="white"/>
</mask>
<g mask="url(#mask3)">
<path fill-rule="evenodd" clip-rule="evenodd" d="M72.5716 122.265C60.6045 123.604 51.3871 127.261 51.203 136.674C33.9337 143.969 21.8145 161.064 21.8145 180.989V187H155.386V180.989C155.386 161.064 143.267 143.969 125.997 136.674C125.813 127.261 116.596 123.604 104.629 122.265V134.907C104.629 143.76 97.4525 150.936 88.6002 150.936C79.7478 150.936 72.5716 143.76 72.5716 134.907V122.265Z" fill="#B7C1DB"/>
<path d="M176.757 113.536H0.442871V187H176.757V113.536Z" fill="#262E33"/>
<path fill-rule="evenodd" clip-rule="evenodd" d="M68.5644 154.768V187H63.8894V152.371C65.3612 153.246 66.926 154.048 68.5644 154.768ZM113.311 152.371V179.319C113.311 180.61 112.264 181.657 110.973 181.657C109.682 181.657 108.636 180.61 108.636 179.319V154.768C110.274 154.048 111.839 153.246 113.311 152.371Z" fill="#F4F4F4"/>
<path fill-rule="evenodd" clip-rule="evenodd" d="M61.1912 122.034C51.1394 123.935 44.1875 127.723 44.1875 135.113C44.1875 148.278 66.252 158.95 88.6 158.95C110.948 158.95 133.013 148.278 133.013 135.113C133.013 127.723 126.061 123.935 116.009 122.034C122.076 124.271 126 128.032 126 134.291C126 147.91 107.419 158.95 88.6 158.95C69.7806 158.95 51.2 147.91 51.2 134.291C51.2 128.032 55.1237 124.271 61.1912 122.034Z" fill="black" fill-opacity="0.16"/>
</g>
<path d="M79.2502 100.179C79.2502 103.766 83.363 106.189 88.6002 106.189C93.8375 106.189 97.9502 103.766 97.9502 100.179C97.9502 99.441 97.316 98.843 96.6145 98.843C95.7512 98.843 95.3658 99.4475 95.2788 100.179C94.4491 102.141 92.3959 103.329 88.6002 103.518C84.8046 103.329 82.7514 102.141 81.9217 100.179C81.8347 99.4475 81.4493 98.843 80.586 98.843C79.8845 98.843 79.2502 99.441 79.2502 100.179Z" fill="black" fill-opacity="0.6"/>
<path fill-rule="evenodd" clip-rule="evenodd" d="M80.5859 86.8215C80.5859 89.7723 84.1741 92.1644 88.6002 92.1644C93.0264 92.1644 96.6145 89.7723 96.6145 86.8215" fill="black" fill-opacity="0.16"/>
<path d="M71.2359 78.8074C73.449 78.8074 75.243 77.0133 75.243 74.8002C75.243 72.5871 73.449 70.7931 71.2359 70.7931C69.0228 70.7931 67.2288 72.5871 67.2288 74.8002C67.2288 77.0133 69.0228 78.8074 71.2359 78.8074Z" fill="black" fill-opacity="0.6"/>
<path fill-rule="evenodd" clip-rule="evenodd" d="M98.357 76.7738C99.4102 74.1569 102.057 72.1987 105.277 71.9735C108.486 71.7491 111.37 73.3081 112.782 75.7381C113.202 76.46 112.722 77.1084 112.163 76.6919C110.432 75.4022 108.052 74.6876 105.479 74.8675C102.987 75.0417 100.791 76.0221 99.2604 77.4633C98.7009 77.9903 98.049 77.5392 98.357 76.7738Z" fill="black" fill-opacity="0.6"/>
<path d="M61.6128 64.2224C64.6155 59.9973 70.9707 57.8721 77.4784 59.9707C78.1805 60.1971 78.9332 59.8115 79.1596 59.1094C79.386 58.4073 79.0004 57.6546 78.2983 57.4282C70.6791 54.9712 63.1117 57.5017 59.4353 62.6749C59.0079 63.2762 59.149 64.1101 59.7503 64.5375C60.3516 64.9648 61.1855 64.8238 61.6128 64.2224Z" fill="black" fill-opacity="0.6"/>
<path d="M115.566 68.8947C112.952 65.2157 105.784 63.1527 99.6094 64.6689C98.893 64.8448 98.1696 64.4067 97.9937 63.6903C97.8178 62.9739 98.2559 62.2505 98.9723 62.0746C106.143 60.3137 114.443 62.7026 117.744 67.3472C118.171 67.9485 118.03 68.7824 117.429 69.2097C116.828 69.6371 115.994 69.496 115.566 68.8947Z" fill="black" fill-opacity="0.6"/>
<mask id="mask4" mask-type="alpha" maskUnits="userSpaceOnUse" x="0" y="0" width="177" height="187">
<path d="M0.942871 0.5H176.257V186.5H0.942871V0.5Z" fill="white" stroke="black"/>
</mask>
<g mask="url(#mask4)">
<mask id="mask5" mask-type="alpha" maskUnits="userSpaceOnUse" x="50" y="23" width="77" height="44">
<path fill-rule="evenodd" clip-rule="evenodd" d="M104.64 38.9886C99.9442 38.5253 94.3818 38.2359 88.8087 38.232C75.9161 38.2229 62.9664 39.7265 60.5499 41.4073C54.069 46.2479 51.5587 64.4121 51.8678 65.4501C51.6492 66.2667 50.7637 66.4442 50.5321 65.4501C50.0517 58.5725 50.5321 23.8598 88.5999 23.3751C126.668 22.8905 127.148 58.5725 126.668 65.4501C126.436 66.4442 125.551 66.2667 125.332 65.4501C125.641 64.4121 123.131 46.2479 116.65 41.4073C115.475 40.59 111.81 39.8112 106.872 39.2294L109.303 33.393L104.64 38.9886Z" fill="white"/>
</mask>
<g mask="url(#mask5)">
<path fill-rule="evenodd" clip-rule="evenodd" d="M104.64 38.9886C99.9442 38.5253 94.3818 38.2359 88.8087 38.232C75.9161 38.2229 62.9664 39.7265 60.5499 41.4073C54.069 46.2479 51.5587 64.4121 51.8678 65.4501C51.6492 66.2667 50.7637 66.4442 50.5321 65.4501C50.0517 58.5725 50.5321 23.8598 88.5999 23.3751C126.668 22.8905 127.148 58.5725 126.668 65.4501C126.436 66.4442 125.551 66.2667 125.332 65.4501C125.641 64.4121 123.131 46.2479 116.65 41.4073C115.475 40.59 111.81 39.8112 106.872 39.2294L109.303 33.393L104.64 38.9886Z" fill="#28354B"/>
<path d="M226.179 22.7074H49.8647V209.707H226.179V22.7074Z" fill="#2C1B18"/>
</g>
</g>
</g>
</svg>
