<svg width="1366" height="582" viewBox="0 0 1366 582" fill="none" xmlns="http://www.w3.org/2000/svg">
<path d="M0 100.588V411.78L302.257 382.879L481.509 61.6501L128.618 22.7125L0 100.588Z" fill="#73DCE5"/>
<path d="M0 191.44V312.573L1367 382.881V226.05L1188.57 115.731L1032.74 170.892L625.966 22.7117L0 191.44Z" fill="#6ED9E3"/>
<path d="M0 191.44V312.573L610.806 104.915H547.473L625.966 22.7116L0 191.44Z" fill="#BAF7E4"/>
<path d="M576.346 277.426L424.97 122.217L334.119 133.035L269.225 52.9972L109.871 191.441L6.0394 234.704L0 464.065C0 464.065 487.981 530.55 492.169 522.152C496.355 513.75 576.346 277.426 576.346 277.426Z" fill="#026799"/>
<path d="M104.824 182.79L0 217.397V464.063H144.481L239.66 303.922L198.885 296.713L389.641 259.219L352.147 189.996L269.225 181.346L314.651 174.134L269.225 52.9956L104.824 182.79Z" fill="url(#paint0_linear)"/>
<path d="M178.368 447.217L335.562 321.229L415.6 320.507L664.328 110.681L703.564 111.403L807.095 29.2025L877.952 0.000671387L924.345 64.8949L1232.91 282.294L1367 312.573V447.217L1013.49 554.852H246.51L178.368 447.217Z" fill="#01729A"/>
<path d="M803.7 19.4688L703.565 103.829H655.318L415.237 312.573H327.629L178.369 447.217L631.912 490.173L913.848 312.573L868.354 213.074C868.354 213.074 810.016 191.44 803.7 200.09C797.385 208.746 754.852 226.05 754.852 226.05L793.978 191.44H868.354L913.848 158.996L868.354 68.1394L798.402 78.9524L849.189 61.6516L877.953 -6.10352e-05L803.7 19.4688Z" fill="url(#paint1_linear)"/>
<path d="M49.6604 355.803C47.5279 361.572 48.277 367.942 49.1601 374.05C48.0583 368.503 40.3538 365.949 35.1155 368.481C32.6303 369.684 30.6864 371.603 29.128 373.87C24.9095 368.134 14.739 365.823 8.62304 364.891C6.06675 364.5 2.98553 364.56 0 365.022V581.861H1013.49C1013.49 581.861 758.146 510.452 412.473 453.191C408.913 427.281 400.78 375.029 396.9 375.584C393.064 376.131 383.411 424.5 378.99 447.734C378.227 447.614 377.459 447.493 376.693 447.37C376.499 436.568 375.734 422.483 373.104 420.834C370.512 419.213 366.629 433.569 363.931 445.342C358.056 444.418 352.156 443.494 346.239 442.578C344.692 432.752 342.185 419.073 340.112 418.494C338.149 417.944 335 430.51 332.815 440.519C316.594 438.047 300.221 435.611 283.696 433.23C292.948 428.848 299.124 422.986 289.667 416.408C269.449 402.347 304.155 400.184 280.314 382.881C256.474 365.575 214.231 364.492 208.312 374.225C202.395 383.961 216.393 396.939 208.312 395.859C200.233 394.776 178.06 387.211 181.568 396.936C184.406 404.807 170.213 404.291 165.978 404.288C157.019 404.277 134.581 396.521 149.766 388.814C152.098 387.63 154.813 387.217 156.937 385.691C172.496 374.504 148.675 360.711 133.498 358.991C122.079 357.695 101.538 356.982 94.2355 368.079C84.5025 382.881 123.437 387.206 84.5025 382.881C82.5149 382.659 80.6667 382.536 78.9005 382.465C74.6081 375.772 74.9471 369.197 73.8043 360.459C73.0443 354.611 70.1298 348.26 64.4622 346.628C63.6065 346.382 62.7426 346.267 61.8841 346.267C56.6047 346.264 51.566 350.647 49.6604 355.803Z" fill="#000C26"/>
<path d="M164.789 386.932C163.709 388.335 163.89 390.325 164.344 392.04C164.888 394.082 165.765 396.078 167.171 397.658C168.579 399.241 170.558 400.378 172.674 400.485C176.288 400.668 179.293 397.382 178.106 393.888C176.92 390.391 174.211 387.083 170.673 385.863C169.918 385.604 169.084 385.453 168.27 385.453C166.911 385.453 165.601 385.877 164.789 386.932Z" fill="url(#paint2_linear)"/>
<path d="M178.558 368.418C177.089 370.726 177.256 373.804 178.454 376.257C179.654 378.709 181.745 380.617 183.99 382.17C187.517 384.612 195.459 389.626 198.193 383.69C200.512 378.662 196.561 371.688 192.851 368.432C190.811 366.644 188.282 365.31 185.578 365.143C185.409 365.135 185.239 365.129 185.07 365.129C182.522 365.129 179.925 366.28 178.558 368.418Z" fill="url(#paint3_linear)"/>
<path d="M297.99 404.715C296.431 405.267 294.887 405.918 293.58 406.926C291.004 408.922 290.225 411.448 294.091 411.755C296.677 411.96 299.387 410.951 301.107 408.991C301.621 408.405 302.058 407.73 302.206 406.97C302.356 406.205 302.17 405.346 301.596 404.821C301.164 404.43 300.62 404.285 300.043 404.285C299.362 404.285 298.635 404.485 297.99 404.715Z" fill="url(#paint4_linear)"/>
<path d="M295.417 415.524C293.342 415.715 294.064 418.089 295.234 419.234C296.264 420.248 297.683 420.732 299.056 421.189C299.944 421.484 301.164 421.662 301.609 420.836C301.984 420.142 301.462 419.313 300.912 418.747C299.832 417.64 297.355 415.516 295.603 415.516C295.54 415.516 295.477 415.519 295.417 415.524Z" fill="url(#paint5_linear)"/>
<path d="M75.4913 372.314C75.2534 372.825 75.3819 373.454 75.6963 373.921C76.0108 374.392 76.481 374.728 76.9567 375.031C78.5588 376.046 85.1751 379.381 84.0897 375.004C83.6523 373.249 80.0953 371.215 77.6347 371.215C76.6614 371.215 75.8604 371.535 75.4913 372.314Z" fill="url(#paint6_linear)"/>
<path d="M80.6968 357.952C79.8766 358.34 79.7836 359.472 79.9531 360.366C80.3879 362.63 85.6371 371.729 88.4778 368.437C91.1735 365.315 84.9892 359.535 82.6188 358.258C82.2032 358.032 81.7248 357.829 81.2627 357.829C81.0686 357.829 80.88 357.868 80.6968 357.952Z" fill="url(#paint7_linear)"/>
<path d="M202.655 385.478C202.051 385.746 201.706 386.405 201.572 387.055C201.195 388.832 202.453 391.955 204.686 391.829C207.401 391.673 206.31 387.999 205.296 386.601C204.81 385.937 204.028 385.352 203.251 385.352C203.052 385.352 202.849 385.39 202.655 385.478Z" fill="url(#paint8_linear)"/>
<path d="M1093.31 354.499C1076.47 349.715 1053.81 355.549 1051.96 361.919C1050 368.686 1060.44 374.173 1055.45 374.826C1050.45 375.485 1036.01 374.545 1039.66 379.78C1042.63 384.018 1034.08 386 1031.55 386.681C1026.2 388.119 1011.57 387.11 1019.38 380.062C1020.58 378.982 1022.14 378.299 1023.16 377.044C1030.64 367.863 1014.2 363.469 1004.87 364.891C998.749 365.823 988.582 368.134 984.363 373.87C982.802 371.603 980.858 369.684 978.373 368.481C973.137 365.949 965.435 368.503 964.331 374.05C965.214 367.942 965.96 361.572 963.831 355.803C961.613 349.81 955.167 344.865 949.026 346.628C943.358 348.26 940.447 354.611 939.684 360.459C938.544 369.197 938.883 375.772 934.593 382.465C932.824 382.536 930.979 382.659 928.989 382.881C890.054 387.206 928.989 382.881 919.253 368.079C911.956 356.982 891.412 357.695 879.99 358.991C864.813 360.711 840.995 374.504 856.551 385.691C858.678 387.217 861.396 387.63 863.725 388.814C878.907 396.521 856.472 404.277 847.515 404.288C843.278 404.291 829.085 404.807 831.923 396.936C835.431 387.211 813.258 394.776 805.179 395.859C797.098 396.939 811.096 383.961 805.179 374.225C799.26 364.492 757.015 365.575 733.177 382.881C709.336 400.184 744.039 402.347 723.821 416.408C714.37 422.986 720.543 428.848 729.798 433.23C713.268 435.611 696.899 438.047 680.676 440.519C678.494 430.51 675.342 417.944 673.379 418.494C671.309 419.073 668.799 432.752 667.252 442.578C661.335 443.494 655.435 444.418 649.563 445.342C646.862 433.569 642.979 419.213 640.385 420.834C637.755 422.483 636.992 436.568 636.795 447.37C636.032 447.493 635.264 447.614 634.501 447.734C630.078 424.5 620.427 376.131 616.591 375.584C612.711 375.029 604.578 427.281 601.015 453.191C255.342 510.452 0 581.861 0 581.861H1367V382.881C1327.05 382.881 1286.9 383.624 1246.71 385.013C1244.63 374.9 1240.65 357.178 1238.32 357.832C1235.98 358.485 1233.07 375.92 1231.64 385.566C1224.38 385.842 1217.12 386.142 1209.86 386.462C1206.29 368.669 1196.79 324.912 1190.73 330.965C1184.72 336.98 1184.85 373.038 1185.16 387.632C1169.49 388.423 1153.83 389.306 1138.19 390.274C1135.74 378.583 1130.51 355.806 1127.28 357.832C1124.03 359.863 1123.63 380.833 1123.63 391.2L1122.63 391.263C1119.12 372.451 1107.73 313.183 1103.48 312.579C1103.46 312.576 1103.44 312.573 1103.42 312.573C1100.98 312.573 1096.89 332.944 1093.31 354.499Z" fill="#010A1D"/>
<path d="M842.819 385.863C839.278 387.083 836.571 390.391 835.388 393.888C834.201 397.382 837.203 400.668 840.817 400.485C842.933 400.378 844.913 399.241 846.315 397.658C847.723 396.078 848.601 394.082 849.145 392.04C849.602 390.325 849.782 388.335 848.699 386.932C847.887 385.877 846.578 385.453 845.219 385.453C844.404 385.453 843.573 385.604 842.819 385.863Z" fill="url(#paint9_linear)"/>
<path d="M827.913 365.143C825.209 365.31 822.677 366.644 820.643 368.432C816.93 371.688 812.977 378.662 815.296 383.69C818.032 389.626 825.975 384.612 829.504 382.17C831.746 380.617 833.838 378.709 835.038 376.257C836.233 373.804 836.397 370.726 834.934 368.418C833.567 366.28 830.967 365.129 828.421 365.129C828.252 365.129 828.083 365.135 827.913 365.143Z" fill="url(#paint10_linear)"/>
<path d="M711.892 404.821C711.321 405.346 711.132 406.205 711.283 406.97C711.433 407.73 711.871 408.405 712.382 408.991C714.104 410.951 716.814 411.96 719.4 411.755C723.266 411.448 722.487 408.922 719.911 406.926C718.604 405.918 717.057 405.267 715.504 404.715C714.856 404.485 714.129 404.285 713.448 404.285C712.868 404.285 712.324 404.43 711.892 404.821Z" fill="url(#paint11_linear)"/>
<path d="M712.576 418.747C712.029 419.313 711.507 420.142 711.882 420.836C712.327 421.662 713.544 421.484 714.432 421.189C715.805 420.732 717.227 420.248 718.26 419.234C719.425 418.089 720.147 415.715 718.074 415.524C718.014 415.519 717.951 415.516 717.888 415.516C716.136 415.516 713.656 417.64 712.576 418.747Z" fill="url(#paint12_linear)"/>
<path d="M929.404 375.004C928.316 379.381 934.93 376.046 936.535 375.031C937.008 374.728 937.481 374.392 937.795 373.921C938.107 373.454 938.238 372.825 938 372.314C937.631 371.535 936.83 371.215 935.857 371.215C933.396 371.215 929.839 373.249 929.404 375.004Z" fill="url(#paint13_linear)"/>
<path d="M930.873 358.258C928.5 359.535 922.318 365.315 925.014 368.437C927.854 371.729 933.104 362.63 933.541 360.366C933.71 359.472 933.612 358.34 932.795 357.952C932.611 357.868 932.42 357.829 932.226 357.829C931.767 357.829 931.288 358.032 930.873 358.258Z" fill="url(#paint14_linear)"/>
<path d="M808.195 386.601C807.178 387.999 806.09 391.673 808.805 391.829C811.036 391.955 812.294 388.832 811.916 387.055C811.782 386.405 811.441 385.746 810.834 385.478C810.64 385.39 810.44 385.352 810.238 385.352C809.464 385.352 808.679 385.937 808.195 386.601Z" fill="url(#paint15_linear)"/>
<path d="M1028.04 376.516C1027.62 377.53 1028.05 378.686 1028.6 379.635C1029.26 380.767 1030.1 381.817 1031.19 382.536C1032.29 383.252 1033.65 383.61 1034.93 383.332C1037.12 382.859 1038.38 380.417 1037.11 378.522C1035.84 376.628 1033.68 375.089 1031.38 374.933C1031.28 374.925 1031.17 374.922 1031.06 374.922C1029.83 374.922 1028.51 375.4 1028.04 376.516Z" fill="url(#paint16_linear)"/>
<path d="M1036.93 360.166C1035.3 360.503 1033.78 361.657 1033.27 363.253C1032.77 364.863 1033.37 366.676 1034.48 367.947C1035.59 369.219 1037.14 370.014 1038.73 370.58C1041.23 371.472 1046.78 373.18 1047.45 369.2C1048.02 365.826 1044.54 362.299 1041.8 360.959C1040.67 360.402 1039.41 360.043 1038.16 360.043C1037.75 360.043 1037.34 360.082 1036.93 360.166Z" fill="url(#paint17_linear)"/>
<path d="M1050.4 369.547C1050.08 369.804 1049.99 370.255 1050.01 370.662C1050.07 371.783 1051.32 373.443 1052.63 373.011C1054.23 372.478 1052.99 370.457 1052.16 369.793C1051.84 369.536 1051.41 369.339 1051.01 369.339C1050.79 369.339 1050.58 369.399 1050.4 369.547Z" fill="url(#paint18_linear)"/>
<defs>
<linearGradient id="paint0_linear" x1="201.801" y1="379.716" x2="80.6635" y2="66.0571" gradientUnits="userSpaceOnUse">
<stop stop-color="#59D2E5"/>
<stop offset="1" stop-color="#D9FFD9"/>
</linearGradient>
<linearGradient id="paint1_linear" x1="605.929" y1="-38.8613" x2="529.327" y2="497.354" gradientUnits="userSpaceOnUse">
<stop stop-color="#64E6F0"/>
<stop offset="1" stop-color="#1D99B4"/>
</linearGradient>
<linearGradient id="paint2_linear" x1="172.773" y1="381.308" x2="142.489" y2="593.296" gradientUnits="userSpaceOnUse">
<stop stop-color="#006389"/>
<stop offset="1" stop-color="#003D69"/>
</linearGradient>
<linearGradient id="paint3_linear" x1="187.191" y1="383.368" x2="156.907" y2="595.357" gradientUnits="userSpaceOnUse">
<stop stop-color="#006389"/>
<stop offset="1" stop-color="#003D69"/>
</linearGradient>
<linearGradient id="paint4_linear" x1="298.132" y1="399.216" x2="267.847" y2="611.211" gradientUnits="userSpaceOnUse">
<stop stop-color="#006389"/>
<stop offset="1" stop-color="#003D69"/>
</linearGradient>
<linearGradient id="paint5_linear" x1="300.63" y1="399.573" x2="270.347" y2="611.559" gradientUnits="userSpaceOnUse">
<stop stop-color="#006389"/>
<stop offset="1" stop-color="#003D69"/>
</linearGradient>
<linearGradient id="paint6_linear" x1="80.681" y1="368.152" x2="50.3969" y2="580.141" gradientUnits="userSpaceOnUse">
<stop stop-color="#006389"/>
<stop offset="1" stop-color="#003D69"/>
</linearGradient>
<linearGradient id="paint7_linear" x1="83.7321" y1="368.588" x2="53.4479" y2="580.577" gradientUnits="userSpaceOnUse">
<stop stop-color="#006389"/>
<stop offset="1" stop-color="#003D69"/>
</linearGradient>
<linearGradient id="paint8_linear" x1="204.375" y1="385.822" x2="174.092" y2="597.807" gradientUnits="userSpaceOnUse">
<stop stop-color="#006389"/>
<stop offset="1" stop-color="#003D69"/>
</linearGradient>
<linearGradient id="paint9_linear" x1="894.982" y1="245.702" x2="757.622" y2="629.663" gradientUnits="userSpaceOnUse">
<stop stop-color="#006389"/>
<stop offset="1" stop-color="#003D69"/>
</linearGradient>
<linearGradient id="paint10_linear" x1="874.557" y1="238.394" x2="737.195" y2="622.358" gradientUnits="userSpaceOnUse">
<stop stop-color="#006389"/>
<stop offset="1" stop-color="#003D69"/>
</linearGradient>
<linearGradient id="paint11_linear" x1="788.407" y1="207.571" x2="651.045" y2="591.54" gradientUnits="userSpaceOnUse">
<stop stop-color="#006389"/>
<stop offset="1" stop-color="#003D69"/>
</linearGradient>
<linearGradient id="paint12_linear" x1="790.786" y1="208.43" x2="653.427" y2="592.384" gradientUnits="userSpaceOnUse">
<stop stop-color="#006389"/>
<stop offset="1" stop-color="#003D69"/>
</linearGradient>
<linearGradient id="paint13_linear" x1="970.079" y1="272.566" x2="832.717" y2="656.532" gradientUnits="userSpaceOnUse">
<stop stop-color="#006389"/>
<stop offset="1" stop-color="#003D69"/>
</linearGradient>
<linearGradient id="paint14_linear" x1="962.357" y1="269.805" x2="824.996" y2="653.766" gradientUnits="userSpaceOnUse">
<stop stop-color="#006389"/>
<stop offset="1" stop-color="#003D69"/>
</linearGradient>
<linearGradient id="paint15_linear" x1="864.619" y1="234.844" x2="727.262" y2="618.795" gradientUnits="userSpaceOnUse">
<stop stop-color="#006389"/>
<stop offset="1" stop-color="#003D69"/>
</linearGradient>
<linearGradient id="paint16_linear" x1="1059.34" y1="304.498" x2="921.974" y2="688.46" gradientUnits="userSpaceOnUse">
<stop stop-color="#006389"/>
<stop offset="1" stop-color="#003D69"/>
</linearGradient>
<linearGradient id="paint17_linear" x1="1062.12" y1="305.495" x2="924.76" y2="689.452" gradientUnits="userSpaceOnUse">
<stop stop-color="#006389"/>
<stop offset="1" stop-color="#003D69"/>
</linearGradient>
<linearGradient id="paint18_linear" x1="1073.74" y1="309.649" x2="936.373" y2="693.62" gradientUnits="userSpaceOnUse">
<stop stop-color="#6616B7"/>
<stop offset="1" stop-color="#003D69"/>
</linearGradient>
</defs>
</svg>
