<svg width="408" height="223" viewBox="0 0 408 223" fill="none" xmlns="http://www.w3.org/2000/svg">
<path d="M264.704 0.388971C264.704 0.388971 257.419 7.26793 247.097 7.89278C236.778 8.51762 208.849 22.2793 208.849 22.2793C208.849 22.2793 181.531 41.6684 176.672 44.1696C171.816 46.6728 134.783 57.9313 134.783 57.9313L80.143 76.0688L6.68143 118.604L0.00439453 222.432H407.375V129.86C407.375 129.86 386.127 104.217 380.663 89.8305C375.199 75.444 370.341 50.4256 353.949 44.1696C337.557 37.9155 317.749 29.785 317.749 29.785L291.418 9.7692L279.275 0.388971H264.704Z" fill="url(#paint0_linear)"/>
<g opacity="0.589996">
<g opacity="0.589996">
<path opacity="0.589996" d="M311.149 35.4145C321.166 41.982 346.665 65.4374 344.843 76.6959C343.022 87.9545 317.749 106.719 317.749 106.719L306.595 133.927L259.241 157.382L181.677 222.433H407.375V129.861C407.375 129.861 386.127 104.218 380.663 89.8309C375.199 75.4444 370.342 50.4259 353.95 44.1718C337.558 37.9158 317.749 29.7852 317.749 29.7852L291.418 9.76935C291.418 9.76935 301.131 28.847 311.149 35.4145Z" fill="#1E0B53"/>
</g>
</g>
<g opacity="0.369995">
<g opacity="0.369995">
<path opacity="0.369995" d="M188.209 56.6814L207.029 44.1712L227.063 22.2808L255.239 6.06839C252.85 6.98972 250.109 7.71215 247.098 7.89416C236.778 8.51901 208.85 22.2808 208.85 22.2808C208.85 22.2808 181.53 41.67 176.674 44.1712C171.817 46.6744 134.784 57.933 134.784 57.933L80.1436 76.0706L112.928 73.5693L188.209 56.6814Z" fill="#FFFEF7"/>
</g>
</g>
<defs>
<linearGradient id="paint0_linear" x1="203.689" y1="281.226" x2="203.689" y2="-14.0854" gradientUnits="userSpaceOnUse">
<stop stop-color="#D0EBFF"/>
<stop offset="0.263004" stop-color="#8BB9F0"/>
<stop offset="1" stop-color="#81C7EF"/>
</linearGradient>
</defs>
</svg>
