<svg width="684" height="361" viewBox="0 0 684 361" fill="none" xmlns="http://www.w3.org/2000/svg">
<path d="M654.068 19.0204C637.069 29.0273 598.213 27.7776 598.213 27.7776H580L560.573 14.0159L522.932 40.2878L473.149 77.8164L422.152 37.7846L413.652 22.7732L394.224 26.5261L294.659 85.3202L278.873 97.8303H250.947L218.163 90.3246L121.024 161.629L0.208984 237.938V360.53H683.209V0.353659C671.332 8.19525 660.144 15.4439 654.068 19.0204Z" fill="url(#paint0_linear)"/>
<mask id="mask0" mask-type="alpha" maskUnits="userSpaceOnUse" x="0" y="0" width="684" height="361">
<path d="M654.068 19.0204C637.069 29.0273 598.213 27.7776 598.213 27.7776H580L560.573 14.0159L522.932 40.2878L473.149 77.8164L422.152 37.7846L413.652 22.7732L394.224 26.5261L294.659 85.3202L278.873 97.8303H250.947L218.163 90.3246L121.024 161.629L0.208984 237.938V360.53H683.209V0.353659C671.332 8.19525 660.144 15.4439 654.068 19.0204Z" fill="url(#paint1_linear)"/>
</mask>
<g mask="url(#mask0)">
<g opacity="0.589996">
<g opacity="0.589996">
<path opacity="0.589996" d="M408.187 95.0157L383.599 114.718L363.564 151.309V181.438L338.066 226.366L321.37 256.702L383.599 193.528L422.577 132.858L473.149 77.8145L422.151 37.7847C425.49 63.1164 408.187 95.0157 408.187 95.0157Z" fill="#1E0B53"/>
</g>
</g>
<g opacity="0.589996">
<g opacity="0.589996">
<path opacity="0.589996" d="M654.067 19.0206C652.672 19.8406 651.119 20.5799 649.465 21.2555C649.465 21.2555 626.747 50.9199 610.355 64.0549C593.963 77.1899 544.787 113.78 544.787 113.78C544.787 113.78 514.735 165.382 494.7 177.579C474.666 189.775 412.74 237.938 412.74 237.938L325.316 360.53H736.634L728.135 -29.7664C728.135 -29.7664 671.066 9.01366 654.067 19.0206Z" fill="#1E0B53"/>
</g>
</g>
</g>
<defs>
<linearGradient id="paint0_linear" x1="368.422" y1="347.395" x2="368.422" y2="-66.1401" gradientUnits="userSpaceOnUse">
<stop stop-color="#C0F6E9"/>
<stop offset="0.0940224" stop-color="#C0E3F6"/>
<stop offset="1" stop-color="#0086C0"/>
</linearGradient>
<linearGradient id="paint1_linear" x1="368.422" y1="347.395" x2="368.422" y2="-66.1401" gradientUnits="userSpaceOnUse">
<stop stop-color="#C0F6E9"/>
<stop offset="0.0940224" stop-color="#C0E3F6"/>
<stop offset="1" stop-color="#0086C0"/>
</linearGradient>
</defs>
</svg>
