<svg width="1362" height="677" viewBox="0 0 1362 677" fill="none" xmlns="http://www.w3.org/2000/svg">
<g clip-path="url(#clip0)">
<path d="M759.704 15.3889C759.704 15.3889 752.419 22.2678 742.097 22.8926C731.778 23.5175 703.849 37.2792 703.849 37.2792C703.849 37.2792 676.531 56.6682 671.672 59.1695C666.816 61.6726 629.783 72.9312 629.783 72.9312L575.143 91.0687L501.681 133.604L444 232L314 308L148 392L-4 372L-2 680L1364 676L1344 438L1282 294L1134 274L1024 190L902.375 144.86C902.375 144.86 881.127 119.217 875.663 104.83C870.199 90.4439 865.341 65.4255 848.949 59.1695C832.557 52.9154 812.749 44.7849 812.749 44.7849L786.418 24.769L774.275 15.3889H759.704Z" fill="url(#paint0_linear)"/>
<g opacity="0.589996">
<g opacity="0.589996">
<path opacity="0.589996" d="M806.149 50.4144C816.166 56.9819 841.665 80.4372 839.843 91.6958C838.022 102.954 812.749 121.719 812.749 121.719L801.595 148.927L754.241 172.382L676.677 237.432L542 676L1024 674L902.375 237.432V144.861C902.375 144.861 881.127 119.217 875.663 104.831C870.199 90.4442 865.342 65.4258 848.95 59.1716C832.558 52.9156 812.749 44.785 812.749 44.785L786.418 24.7692C786.418 24.7692 796.131 43.8469 806.149 50.4144Z" fill="#1E0B53"/>
</g>
</g>
<g opacity="0.369995">
<g opacity="0.369995">
<path opacity="0.369995" d="M683.209 71.6814L702.029 59.1712L722.063 37.2807L750.239 21.0683C747.85 21.9897 745.109 22.7121 742.098 22.8941C731.778 23.519 703.85 37.2807 703.85 37.2807C703.85 37.2807 676.53 56.6699 671.674 59.1712C666.817 61.6743 629.784 72.9329 629.784 72.9329L575.144 91.0706L607.928 88.5693L683.209 71.6814Z" fill="#FFFEF7"/>
</g>
</g>
</g>
<defs>
<linearGradient id="paint0_linear" x1="590" y1="440" x2="698.689" y2="0.914538" gradientUnits="userSpaceOnUse">
<stop stop-color="#D0EBFF"/>
<stop offset="0.756105" stop-color="#8BB9F0"/>
<stop offset="1" stop-color="#81C7EF"/>
</linearGradient>
<clipPath id="clip0">
<rect width="1362" height="677" fill="white"/>
</clipPath>
</defs>
</svg>
