<svg width="1362" height="677" viewBox="0 0 1362 677" fill="none" xmlns="http://www.w3.org/2000/svg">
<g clip-path="url(#clip0)">
<path fill-rule="evenodd" clip-rule="evenodd" d="M1279.53 34.2616C1279.53 34.2616 1318.39 35.5113 1335.39 25.5043C1341.47 21.9279 1352.65 14.6792 1364.53 6.83765V367.014H1364V677H0V379L80 327L180 371L396 377L696.852 234.744L802.345 168.113L899.484 96.8086L932.268 104.314H960.194L975.98 91.8042L1075.54 33.0101L1094.97 29.2572L1103.47 44.2686L1154.47 84.3004L1204.25 46.7718L1241.89 20.4999L1261.32 34.2616H1279.53Z" fill="url(#paint0_linear)"/>
<g opacity="0.589996">
<g opacity="0.589996">
<path opacity="0.589996" d="M1089.51 101.5L1064.92 121.202L1044.89 157.792V187.922L1019.39 232.85L1002.69 263.186L1064.92 200.012L1103.9 139.342L1154.47 84.2984L1103.47 44.2686C1106.81 69.6004 1089.51 101.5 1089.51 101.5Z" fill="#1E0B53"/>
</g>
</g>
<g opacity="0.589996">
<g opacity="0.589996">
<path opacity="0.589996" d="M1335.39 25.5046C1333.99 26.3246 1332.44 27.0639 1330.79 27.7394C1330.79 27.7394 1308.07 57.4038 1291.68 70.5388C1275.28 83.6738 1226.11 120.264 1226.11 120.264C1226.11 120.264 1196.06 171.866 1176.02 184.063C1155.99 196.259 1094.06 244.422 1094.06 244.422L952 459L694 677L1361.5 675.5V8.5C1361.5 8.5 1352.39 15.4976 1335.39 25.5046Z" fill="#1E0B53"/>
</g>
</g>
</g>
<defs>
<linearGradient id="paint0_linear" x1="766" y1="713" x2="1049.74" y2="-59.6561" gradientUnits="userSpaceOnUse">
<stop stop-color="#C0F6E9"/>
<stop offset="0.265625" stop-color="#C0E3F6"/>
<stop offset="1" stop-color="#0086C0"/>
</linearGradient>
<clipPath id="clip0">
<rect width="1362" height="677" fill="white"/>
</clipPath>
</defs>
</svg>
