<svg width="1362" height="677" viewBox="0 0 1362 677" fill="none" xmlns="http://www.w3.org/2000/svg">
<g clip-path="url(#clip0)">
<path fill-rule="evenodd" clip-rule="evenodd" d="M314.693 24.016H343.832L415.472 14.009L447.043 24.016L565.752 116.588L625.858 142.856L799.958 250.439L1009.23 305.253L1191.36 355.519V357.168L1364 427V677H0V433L0.208496 432.986V148.194C22.7967 136.787 46.0587 126.227 58.4911 124.093C87.6325 119.089 175.056 99.0751 175.056 99.0751L286.764 50.2879L314.693 24.016Z" fill="url(#paint0_linear)"/>
<g opacity="0.369995">
<g opacity="0.369995">
<path opacity="0.369995" d="M-19.0761 167.109L143.023 137.086L236.517 93.3036L308.157 44.5166L342.154 24.5008H313.013L285.087 50.7707L173.379 99.5577C173.379 99.5577 85.9547 119.574 56.8134 124.576C27.672 129.581 -60.9668 180.869 -60.9668 180.869V205.606L-19.0761 167.109Z" fill="#FFFEF7"/>
</g>
</g>
<g opacity="0.320007">
<g opacity="0.320007">
<path opacity="0.320007" d="M1007.55 305.737L798.279 250.922L624.179 143.341L564.074 117.071L504.225 70.4007L551.987 137.087L681.529 219.648C681.529 219.648 752.836 281.797 755.128 285.124C757.419 288.451 1035.47 313.443 1035.48 313.445L1007.55 305.737Z" fill="#1E0B53"/>
</g>
</g>
</g>
<defs>
<linearGradient id="paint0_linear" x1="566.036" y1="597.578" x2="566.036" y2="130.342" gradientUnits="userSpaceOnUse">
<stop offset="0.0940224" stop-color="#E5C0F6"/>
<stop offset="1" stop-color="#4D94D6"/>
</linearGradient>
<clipPath id="clip0">
<rect width="1362" height="677" fill="white"/>
</clipPath>
</defs>
</svg>
