<svg width="1364" height="500" viewBox="0 0 1364 500" fill="none" xmlns="http://www.w3.org/2000/svg">
<path d="M1310.46 45.079C1310.46 45.079 1181.02 66.8865 1159.2 65.6031C1137.38 64.3215 1111.23 80.9971 1111.23 80.9971L992.939 137.443H958.075L873.402 119.482H844.764L779.084 145.14H746.718L732.424 151.554L706.034 133.595L660.79 114.352L650.536 102.807L613.862 98.9581L599.292 83.5641L574.344 88.6941L517.283 118.201L487.4 128.463L415.18 143.857L350.432 183.625C350.432 183.625 247.78 231.193 214.278 236.271C180.776 241.353 90.1902 241.353 90.1902 241.353L0 261.515V499.844H1364V0.222674L1310.46 45.079Z" fill="url(#paint0_linear)"/>
<defs>
<linearGradient id="paint0_linear" x1="711.884" y1="669.178" x2="711.884" y2="215.051" gradientUnits="userSpaceOnUse">
<stop offset="0.00786761" stop-color="#509F93"/>
<stop offset="0.15625" stop-color="#000957"/>
<stop offset="1" stop-color="#001E4C"/>
</linearGradient>
</defs>
</svg>
