<svg width="1366" height="584" viewBox="0 0 1366 584" fill="none" xmlns="http://www.w3.org/2000/svg">
<mask id="mask0" mask-type="alpha" maskUnits="userSpaceOnUse" x="0" y="0" width="1366" height="584">
<rect y="0.751343" width="1366" height="583.249" fill="#C4C4C4"/>
</mask>
<g mask="url(#mask0)">
<path fill-rule="evenodd" clip-rule="evenodd" d="M691.25 634.51L686.407 583.384H687.719V559.8C687.29 559.7 686.85 559.585 686.407 559.484V551.754H685.646C684.741 535.232 681.073 518.975 674.794 503.65C665.19 482.274 639.51 467.503 617.394 456.156C624.124 456.946 628.77 457.581 628.77 457.581C624.841 454.805 617.77 452.641 607.466 451.115C606.451 450.594 605.345 450.053 604.351 449.549C595.704 445.18 587.822 440.622 581.234 436.596L581.18 432.495L577.508 432.536L566.964 424.785C565.921 424.374 564.828 424.099 563.714 423.969L570.731 418.8C570.731 418.8 573.152 417.069 570.92 415.496C569.23 414.333 565.787 411.947 564.086 410.76L572.422 400.936C572.422 400.936 573.47 399.659 572.726 398.802C572.834 398.486 572.787 398.13 572.364 397.599C570.474 395.246 569.263 393.526 564.083 387.368L563.234 387.328L568.005 377.581L565.124 371.75L561.922 348.499L561.222 371.69L558.456 377.806L562.568 387.247L561.854 387.214L553.525 397.297C553.525 397.297 552.463 398.54 553.228 399.313C553.189 399.544 553.203 399.78 553.269 400.005C553.336 400.23 553.452 400.437 553.61 400.61C554.989 402.536 557.82 407.719 559.321 410.545C559.271 410.561 559.223 410.583 559.179 410.612C556.893 412.35 554.208 414.783 554.208 414.783C554.208 414.783 551.297 417.358 553.065 418.595C554.533 419.643 559.511 423.075 561.046 424.13C560.311 424.232 559.594 424.439 558.919 424.745C555.345 426.956 552.018 429.538 548.994 432.448L545.301 432.495V436.125C538.754 440.753 530.838 446.067 522.708 451.058C500.19 455.222 494.082 462.74 501.596 459.837C505.083 458.605 508.674 457.69 512.326 457.101C510.477 458.089 508.681 459.074 506.916 460.001C495.46 465.658 484.437 472.142 473.935 479.4L471.906 373.965C474.482 374.607 475.964 375.101 475.964 375.101C477.012 373.175 476.268 371.602 474.273 370.332C478.983 367.203 487.231 360.441 486.572 351.568C485.835 349.647 484.649 347.928 483.112 346.552C481.575 345.176 479.731 344.184 477.732 343.656C475.626 342.923 473.481 342.305 471.307 341.804L468.017 168.754C468.03 168.653 468.03 168.552 468.017 168.451C469.363 168.759 470.693 169.136 472 169.581C472.896 167.971 472.257 166.68 470.648 165.655C474.503 163.107 481.205 157.589 480.698 150.363C480.099 148.794 479.13 147.391 477.873 146.271C476.615 145.151 475.106 144.347 473.471 143.927C470.222 142.791 466.87 141.97 463.462 141.473C466.268 141.298 468.575 141.204 470.198 141.137L469.254 99.4616C469.593 99.7036 470.009 99.875 470.33 100.134L485.179 87.2346C485.179 87.2346 483.403 83.6922 470.861 81.4236C470.935 74.6443 469.447 67.9381 466.51 61.8192C463.572 55.7003 459.264 50.3313 453.915 46.1238C449.552 42.9004 445.357 39.4589 441.346 35.8125L441.292 34.1623L440.223 34.1824L437.061 31.208C436.846 30.929 436.67 30.6227 436.537 30.2972L438.113 28.7377C438.204 28.6549 438.278 28.5547 438.33 28.443C438.381 28.3313 438.41 28.2104 438.414 28.0875C438.418 27.9646 438.397 27.8423 438.352 27.7276C438.307 27.613 438.24 27.5085 438.153 27.4203C437.677 26.9733 436.618 26.0221 436.087 25.5549L438.576 21.6496C438.702 21.4082 438.733 21.1293 438.664 20.8665C438.697 20.7702 438.7 20.6663 438.672 20.5684C438.644 20.4706 438.587 20.3835 438.508 20.3186C437.756 18.9244 436.932 17.5693 436.04 16.2586H435.749L437.203 12.3734L436.3 10.0409L435.259 0.751343L435.09 10.0174L434.261 12.444L435.526 16.2116H435.336L432.861 20.2447C432.796 20.346 432.754 20.4597 432.737 20.5784C432.719 20.6972 432.727 20.8182 432.76 20.9337C432.724 21.0399 432.718 21.1536 432.742 21.2629C432.766 21.3723 432.818 21.4733 432.895 21.5555C433.324 22.2982 434.187 24.3786 434.643 25.5012H434.599C433.886 26.2305 433.091 27.1816 433.091 27.1816C433.091 27.1816 432.215 28.2235 432.787 28.7008C433.203 29.1007 434.697 30.4316 435.154 30.8887C434.932 30.9396 434.719 31.0234 434.522 31.1374C433.431 32.0627 432.439 33.0978 431.563 34.2261L430.44 34.2799L430.521 35.8965H431.664C430.338 37.5131 428.81 39.3885 426.822 41.721C422.087 47.2027 414.262 54.0186 408.716 62.8108V62.7839C407.881 64.1283 407.12 65.4995 406.396 66.9481C406.153 67.3884 405.987 67.8522 405.784 68.2924C405.177 69.5855 404.651 70.9144 404.208 72.2718C404.053 72.7658 403.897 73.2397 403.745 73.7371C403.204 75.5996 402.815 77.5024 402.582 79.4272C402.453 80.4354 402.325 81.3731 402.244 82.2907L402.277 82.2571C402.169 83.3998 402.041 84.5761 401.939 85.4668C400.313 86.1389 399.007 86.7775 398.098 87.2716C394.588 89.5108 391.293 92.0657 388.254 94.9042L400.989 101.552V146.252C400.989 146.252 401.831 146.172 403.17 146.057C397.063 148.773 393.059 152.077 392.586 155.411C392.525 155.747 392.981 155.945 393.6 156.083C395.036 160.957 398.359 165.067 402.839 167.51C402.445 167.966 402.187 168.522 402.093 169.116C401.999 169.709 402.074 170.317 402.308 170.871C403.423 169.905 404.713 169.158 406.109 168.67C406.271 168.71 406.42 168.737 406.606 168.784C406.532 168.911 406.471 169.045 406.423 169.184C404.79 170.246 403.833 170.955 403.833 170.955L398.169 343.791C386.861 347.434 379.276 352.569 378.555 357.752C378.488 358.159 379.025 358.424 379.786 358.575C381.567 364.57 385.668 369.618 391.189 372.611C390.691 373.154 390.36 373.827 390.233 374.551C390.107 375.275 390.191 376.019 390.476 376.697C391.854 375.518 393.443 374.606 395.159 374.009C395.382 374.069 395.562 374.089 395.751 374.13C395.577 374.4 395.484 374.714 395.484 375.035C395.484 375.356 395.577 375.671 395.751 375.941C396.181 375.662 396.634 375.418 397.104 375.212L395.67 419.24L393.343 416.03C393.283 415.922 393.195 415.831 393.088 415.767C392.981 415.703 392.858 415.668 392.734 415.666C392.609 415.664 392.486 415.695 392.377 415.755C392.267 415.816 392.176 415.904 392.112 416.01L387.02 422.571C386.681 423.024 386.864 423.381 387.429 423.381L389.701 423.354L390.225 457.269L375.914 457.477V457.329L369.448 457.423L355.979 480.318L347.965 479.743V441.553L352.175 441.519C352.875 441.519 353.125 441.032 352.686 440.444L347.062 432.606C346.981 432.477 346.868 432.37 346.735 432.295C346.602 432.22 346.451 432.18 346.298 432.177C346.145 432.174 345.994 432.21 345.858 432.28C345.722 432.35 345.606 432.453 345.52 432.579L339.23 440.676C338.787 441.271 339.02 441.731 339.741 441.684H340.65V480.167H324.665L324.638 478.843L324.128 447.162L331.259 447.055L336.251 440.589C336.251 440.589 337.448 440.014 334.462 438.965C333.136 438.485 329.078 437.261 324.956 436.018C324.861 427.25 323.529 418.539 321 410.139C317.618 400.217 308.559 393.381 300.774 388.114C303.161 388.451 304.812 388.756 304.812 388.756C302.606 387.136 300.019 386.105 297.298 385.762C296.959 385.52 296.55 385.261 296.209 385.046C293.165 382.992 290.362 380.888 288.042 379.02V377.128H286.743L282.997 373.525C282.645 373.337 282.263 373.215 281.867 373.165L284.309 370.752C284.309 370.752 285.164 369.955 284.39 369.226C283.812 368.678 282.574 367.546 281.996 367.018L284.921 362.45C285.069 362.183 285.113 361.871 285.043 361.573C285.077 361.46 285.084 361.339 285.063 361.223C285.042 361.106 284.993 360.996 284.921 360.901C284.244 359.765 283.812 358.982 281.996 356.145L281.725 356.105L283.392 351.585L282.378 348.896L281.242 338.097L280.957 348.852L280 351.695L281.448 356.065L281.198 356.045L278.259 360.75C278.186 360.869 278.139 361.002 278.123 361.141C278.107 361.28 278.121 361.42 278.164 361.553C278.133 361.673 278.127 361.798 278.148 361.921C278.169 362.043 278.216 362.159 278.286 362.262C278.797 363.173 279.801 365.586 280.315 366.884H280.288C279.466 367.693 278.526 368.843 278.526 368.843C278.526 368.843 277.491 370.019 278.124 370.614C278.621 371.088 280.383 372.674 280.944 373.175C280.671 373.194 280.41 373.29 280.19 373.451C278.884 374.502 277.707 375.702 276.683 377.027L275.364 377.054L275.391 378.734C273.051 380.888 270.265 383.355 267.384 385.688C259.457 387.627 257.32 391.106 259.964 389.721C261.156 389.18 262.404 388.768 263.684 388.491C263.072 388.951 262.426 389.395 261.855 389.808C253.042 395.68 239.874 405.702 237.547 419.858C236.786 423.974 236.481 428.159 236.638 432.341L232.918 427.367C232.982 427.058 233.072 426.756 233.188 426.463C234.125 427.451 235.119 420.82 235.119 420.82L235.765 418.692C235.744 418.637 235.709 418.588 235.664 418.551C235.738 418.336 235.806 418.104 235.873 417.879C235.884 417.928 235.903 417.976 235.927 418.02L235.9 417.731C239.11 406.804 241.644 395.692 243.489 384.458C243.531 384.502 243.567 384.552 243.597 384.606L243.55 384.071C247.909 357.231 249.058 323.639 234.615 299.678C219.736 275.081 199.082 254.432 174.422 239.498C174.008 238.573 173.524 237.681 172.975 236.829L170.425 229.902L161.186 227.099L157.003 221.722L154.345 222.229C150.122 219.033 145.134 215.081 141.018 211.525C135.756 206.951 133.369 204.803 129.01 203.828L129.703 203.808V199.95H126.998C124.798 197.253 122.321 194.791 119.609 192.603C119.126 192.332 118.6 192.144 118.053 192.048C119.129 191.02 122.71 187.679 123.802 186.651C125.101 185.447 122.92 183.007 122.92 183.007C122.92 183.007 120.935 180.702 119.2 179.042C119.146 179.008 119.132 179.008 119.105 178.974C120.18 176.239 122.179 171.224 123.163 169.379C123.315 169.167 123.415 168.924 123.456 168.667C123.497 168.411 123.478 168.148 123.4 167.9C123.528 167.324 123.424 166.72 123.109 166.22L116.941 156.604L116.376 156.638L119.237 147.482L117.164 141.638L116.254 119.338L114.269 141.745L112.24 147.388L115.872 156.698L115.267 156.779C111.608 162.704 110.739 164.401 109.393 166.694C108.997 167.335 108.997 167.756 109.163 168.065C109.015 168.681 109.096 169.329 109.393 169.89L115.608 179.257C114.384 180.446 111.943 182.792 110.739 183.912C110.526 184.122 110.361 184.374 110.254 184.653C110.146 184.931 110.1 185.229 110.117 185.527C110.134 185.825 110.215 186.115 110.354 186.38C110.492 186.644 110.686 186.876 110.921 187.061L116.082 191.974C115.264 192.106 114.477 192.387 113.762 192.805L106.16 200.346H103.489V204.453L104.121 204.427C101.531 205.29 99.2368 206.858 97.4997 208.954C95.4707 210.97 90.2258 215.961 86.1373 219.799L85.975 219.732L81.0852 224.532C81.0378 224.585 80.9972 224.612 80.9702 224.653C80.8596 224.695 80.7467 224.731 80.632 224.76L74.0649 224.132L71.4813 229.321C71.0721 229.61 70.6798 229.869 70.2639 230.131L62.8243 231.321L62.919 237.138C62.4479 237.89 62.0363 238.676 61.688 239.491C51.2658 246.378 18.3082 267 0 305.147V600.908L691.25 634.51Z" fill="#010A1D"/>
<path fill-rule="evenodd" clip-rule="evenodd" d="M674.75 634.51L679.593 583.384H678.281V559.8C678.71 559.7 679.15 559.585 679.593 559.484V551.754H680.354C681.259 535.232 684.927 518.975 691.206 503.65C700.81 482.274 726.49 467.503 748.606 456.156C741.876 456.946 737.23 457.581 737.23 457.581C741.159 454.805 748.23 452.641 758.534 451.115C759.549 450.594 760.655 450.053 761.649 449.549C770.296 445.18 778.178 440.622 784.766 436.596L784.82 432.495L788.492 432.536L799.036 424.785C800.079 424.374 801.172 424.099 802.286 423.969L795.269 418.8C795.269 418.8 792.848 417.069 795.08 415.496C796.77 414.333 800.213 411.947 801.914 410.76L793.578 400.936C793.578 400.936 792.53 399.659 793.274 398.802C793.166 398.486 793.213 398.13 793.636 397.599C795.526 395.246 796.737 393.526 801.917 387.368L802.766 387.328L797.995 377.581L800.876 371.75L804.078 348.499L804.778 371.69L807.544 377.806L803.432 387.247L804.146 387.214L812.475 397.297C812.475 397.297 813.537 398.54 812.772 399.313C812.811 399.544 812.797 399.78 812.731 400.005C812.664 400.23 812.548 400.437 812.39 400.61C811.011 402.536 808.18 407.719 806.679 410.545C806.729 410.561 806.777 410.583 806.821 410.612C809.107 412.35 811.792 414.783 811.792 414.783C811.792 414.783 814.703 417.358 812.935 418.595C811.467 419.643 806.489 423.075 804.954 424.13C805.689 424.232 806.406 424.439 807.081 424.745C810.655 426.956 813.982 429.538 817.006 432.448L820.699 432.495V436.125C827.246 440.753 835.162 446.067 843.292 451.058C865.81 455.222 871.918 462.74 864.404 459.837C860.917 458.605 857.326 457.69 853.674 457.101C855.523 458.089 857.319 459.074 859.084 460.001C870.54 465.658 881.563 472.142 892.065 479.4L894.094 373.965C891.518 374.607 890.036 375.101 890.036 375.101C888.988 373.175 889.732 371.602 891.727 370.332C887.017 367.203 878.769 360.441 879.428 351.568C880.165 349.647 881.351 347.928 882.888 346.552C884.425 345.176 886.269 344.184 888.268 343.656C890.374 342.923 892.519 342.305 894.693 341.804L897.983 168.754C897.97 168.653 897.97 168.552 897.983 168.451C896.637 168.759 895.307 169.136 894 169.581C893.104 167.971 893.743 166.68 895.352 165.655C891.497 163.107 884.795 157.589 885.302 150.363C885.901 148.794 886.87 147.391 888.127 146.271C889.385 145.151 890.894 144.347 892.529 143.927C895.778 142.791 899.13 141.97 902.538 141.473C899.732 141.298 897.425 141.204 895.802 141.137L896.746 99.4616C896.407 99.7036 895.991 99.875 895.67 100.134L880.821 87.2346C880.821 87.2346 882.597 83.6922 895.139 81.4236C895.065 74.6443 896.553 67.9381 899.49 61.8192C902.428 55.7003 906.736 50.3313 912.085 46.1238C916.448 42.9004 920.643 39.4589 924.654 35.8125L924.708 34.1623L925.777 34.1824L928.939 31.208C929.154 30.929 929.33 30.6227 929.463 30.2972L927.887 28.7377C927.796 28.6549 927.722 28.5547 927.67 28.443C927.619 28.3313 927.59 28.2104 927.586 28.0875C927.582 27.9646 927.603 27.8423 927.648 27.7276C927.693 27.613 927.76 27.5085 927.847 27.4203C928.323 26.9733 929.382 26.0221 929.913 25.5549L927.424 21.6496C927.298 21.4082 927.267 21.1293 927.336 20.8665C927.303 20.7702 927.3 20.6663 927.328 20.5684C927.356 20.4706 927.413 20.3835 927.492 20.3186C928.244 18.9244 929.068 17.5693 929.96 16.2586H930.251L928.797 12.3734L929.7 10.0409L930.741 0.751343L930.91 10.0174L931.739 12.444L930.474 16.2116H930.664L933.139 20.2447C933.204 20.346 933.246 20.4597 933.263 20.5784C933.281 20.6972 933.273 20.8182 933.24 20.9337C933.276 21.0399 933.282 21.1536 933.258 21.2629C933.234 21.3723 933.182 21.4733 933.105 21.5555C932.676 22.2982 931.813 24.3786 931.357 25.5012H931.401C932.114 26.2305 932.909 27.1816 932.909 27.1816C932.909 27.1816 933.785 28.2235 933.213 28.7008C932.797 29.1007 931.303 30.4316 930.846 30.8887C931.068 30.9396 931.281 31.0234 931.478 31.1374C932.569 32.0627 933.561 33.0978 934.437 34.2261L935.56 34.2799L935.479 35.8965H934.336C935.662 37.5131 937.19 39.3885 939.178 41.721C943.913 47.2027 951.738 54.0186 957.284 62.8108V62.7839C958.119 64.1283 958.88 65.4995 959.604 66.9481C959.847 67.3884 960.013 67.8522 960.216 68.2924C960.823 69.5855 961.349 70.9144 961.792 72.2718C961.947 72.7658 962.103 73.2397 962.255 73.7371C962.796 75.5996 963.185 77.5024 963.418 79.4272C963.547 80.4354 963.675 81.3731 963.756 82.2907L963.723 82.2571C963.831 83.3998 963.959 84.5761 964.061 85.4667C965.687 86.1389 966.993 86.7775 967.902 87.2716C971.412 89.5108 974.707 92.0658 977.746 94.9042L965.011 101.552V146.252C965.011 146.252 964.169 146.172 962.83 146.057C968.937 148.773 972.941 152.077 973.414 155.411C973.475 155.747 973.019 155.945 972.4 156.083C970.964 160.957 967.641 165.067 963.161 167.51C963.555 167.966 963.813 168.522 963.907 169.116C964.001 169.709 963.926 170.317 963.692 170.871C962.577 169.905 961.287 169.158 959.891 168.67C959.729 168.71 959.58 168.737 959.394 168.784C959.468 168.911 959.529 169.045 959.577 169.184C961.21 170.246 962.167 170.955 962.167 170.955L967.831 343.791C979.139 347.434 986.724 352.569 987.445 357.752C987.512 358.159 986.975 358.424 986.214 358.575C984.433 364.57 980.332 369.618 974.811 372.611C975.309 373.154 975.64 373.827 975.767 374.551C975.893 375.275 975.809 376.019 975.524 376.697C974.146 375.518 972.558 374.606 970.841 374.009C970.618 374.069 970.438 374.089 970.249 374.13C970.423 374.4 970.516 374.714 970.516 375.035C970.516 375.356 970.423 375.671 970.249 375.941C969.819 375.662 969.366 375.418 968.896 375.212L970.33 419.24L972.657 416.03C972.717 415.922 972.805 415.831 972.912 415.767C973.02 415.703 973.142 415.668 973.266 415.666C973.391 415.664 973.514 415.695 973.623 415.755C973.733 415.816 973.824 415.904 973.888 416.01L978.981 422.571C979.319 423.024 979.136 423.381 978.571 423.381L976.299 423.354L975.775 457.269L990.086 457.477V457.329L996.552 457.423L1010.02 480.318L1018.04 479.743V441.553L1013.82 441.519C1013.12 441.519 1012.87 441.032 1013.31 440.444L1018.94 432.606C1019.02 432.477 1019.13 432.37 1019.27 432.295C1019.4 432.22 1019.55 432.18 1019.7 432.177C1019.85 432.174 1020.01 432.21 1020.14 432.28C1020.28 432.35 1020.39 432.453 1020.48 432.579L1026.77 440.676C1027.21 441.271 1026.98 441.731 1026.26 441.684H1025.35V480.167H1041.33L1041.36 478.843L1041.87 447.162L1034.74 447.055L1029.75 440.589C1029.75 440.589 1028.55 440.014 1031.54 438.965C1032.86 438.485 1036.92 437.261 1041.04 436.018C1041.14 427.25 1042.47 418.539 1045 410.139C1048.38 400.217 1057.44 393.381 1065.23 388.114C1062.84 388.451 1061.19 388.756 1061.19 388.756C1063.39 387.136 1065.98 386.105 1068.7 385.762C1069.04 385.52 1069.45 385.261 1069.79 385.046C1072.83 382.992 1075.64 380.888 1077.96 379.02V377.128H1079.26L1083 373.525C1083.35 373.337 1083.74 373.215 1084.13 373.165L1081.69 370.752C1081.69 370.752 1080.84 369.955 1081.61 369.226C1082.19 368.678 1083.43 367.546 1084 367.018L1081.08 362.45C1080.93 362.183 1080.89 361.871 1080.96 361.573C1080.92 361.46 1080.92 361.339 1080.94 361.223C1080.96 361.106 1081.01 360.996 1081.08 360.901C1081.76 359.765 1082.19 358.982 1084 356.145L1084.27 356.105L1082.61 351.585L1083.62 348.896L1084.76 338.097L1085.04 348.852L1086 351.695L1084.55 356.065L1084.8 356.045L1087.74 360.75C1087.81 360.869 1087.86 361.003 1087.88 361.141C1087.89 361.28 1087.88 361.42 1087.84 361.553C1087.87 361.673 1087.87 361.798 1087.85 361.921C1087.83 362.043 1087.78 362.159 1087.71 362.262C1087.2 363.173 1086.2 365.586 1085.69 366.884H1085.71C1086.53 367.693 1087.47 368.843 1087.47 368.843C1087.47 368.843 1088.51 370.019 1087.88 370.614C1087.38 371.088 1085.62 372.674 1085.06 373.175C1085.33 373.194 1085.59 373.29 1085.81 373.451C1087.12 374.502 1088.29 375.702 1089.32 377.027L1090.64 377.054L1090.61 378.734C1092.95 380.888 1095.74 383.355 1098.62 385.688C1106.54 387.627 1108.68 391.106 1106.04 389.721C1104.84 389.18 1103.6 388.768 1102.32 388.491C1102.93 388.951 1103.57 389.395 1104.15 389.808C1112.96 395.68 1126.13 405.702 1128.45 419.858C1129.21 423.974 1129.52 428.159 1129.36 432.341L1133.08 427.367C1133.02 427.058 1132.93 426.756 1132.81 426.463C1131.87 427.451 1130.88 420.82 1130.88 420.82L1130.23 418.692C1130.26 418.637 1130.29 418.588 1130.34 418.551C1130.26 418.336 1130.19 418.104 1130.13 417.879C1130.12 417.928 1130.1 417.976 1130.07 418.02L1130.1 417.731C1126.89 406.804 1124.36 395.692 1122.51 384.458C1122.47 384.502 1122.43 384.552 1122.4 384.606L1122.45 384.071C1118.09 357.231 1116.94 323.639 1131.38 299.679C1146.26 275.081 1166.92 254.432 1191.58 239.498C1191.99 238.573 1192.48 237.681 1193.03 236.829L1195.58 229.902L1204.81 227.099L1209 221.722L1211.65 222.229C1215.88 219.033 1220.87 215.081 1224.98 211.525C1230.24 206.951 1232.63 204.803 1236.99 203.828L1236.3 203.808V199.95H1239C1241.2 197.253 1243.68 194.791 1246.39 192.603C1246.87 192.332 1247.4 192.144 1247.95 192.048C1246.87 191.02 1243.29 187.679 1242.2 186.651C1240.9 185.447 1243.08 183.007 1243.08 183.007C1243.08 183.007 1245.07 180.702 1246.8 179.042C1246.85 179.008 1246.87 179.008 1246.89 178.974C1245.82 176.239 1243.82 171.224 1242.84 169.379C1242.69 169.167 1242.58 168.924 1242.54 168.667C1242.5 168.411 1242.52 168.148 1242.6 167.9C1242.47 167.324 1242.58 166.72 1242.89 166.22L1249.06 156.604L1249.62 156.638L1246.76 147.482L1248.84 141.638L1249.75 119.338L1251.73 141.745L1253.76 147.388L1250.13 156.698L1250.73 156.779C1254.39 162.704 1255.26 164.401 1256.61 166.694C1257 167.335 1257 167.756 1256.84 168.065C1256.99 168.681 1256.9 169.329 1256.61 169.89L1250.39 179.257C1251.62 180.446 1254.06 182.792 1255.26 183.912C1255.47 184.122 1255.64 184.374 1255.75 184.653C1255.85 184.931 1255.9 185.229 1255.88 185.527C1255.87 185.825 1255.78 186.115 1255.65 186.38C1255.51 186.644 1255.31 186.876 1255.08 187.061L1249.92 191.974C1250.74 192.106 1251.52 192.387 1252.24 192.805L1259.84 200.346H1262.51V204.453L1261.88 204.427C1264.47 205.29 1266.76 206.858 1268.5 208.954C1270.53 210.97 1275.77 215.961 1279.86 219.799L1280.02 219.732L1284.91 224.532C1284.96 224.585 1285 224.612 1285.03 224.653C1285.14 224.695 1285.25 224.731 1285.37 224.76L1291.94 224.132L1294.52 229.321C1294.93 229.61 1295.32 229.869 1295.74 230.131L1303.18 231.321L1303.08 237.138C1303.55 237.89 1303.96 238.676 1304.31 239.491C1314.73 246.378 1347.69 267 1366 305.147V600.908L674.75 634.51Z" fill="#010A1D"/>
</g>
</svg>
